<?xml version="1.0" encoding="UTF-8" standalone="no"?>
<svg
   xmlns:dc="http://purl.org/dc/elements/1.1/"
   xmlns:cc="http://creativecommons.org/ns#"
   xmlns:rdf="http://www.w3.org/1999/02/22-rdf-syntax-ns#"
   xmlns:svg="http://www.w3.org/2000/svg"
   xmlns="http://www.w3.org/2000/svg"
   xmlns:xlink="http://www.w3.org/1999/xlink"
   version="1.1"
   id="svg2"
   viewBox="0 0 24 24"
   height="24"
   width="24">
  <defs
     id="defs4">
    <linearGradient
       id="linearGradient4531">
      <stop
         style="stop-color:#ffffff;stop-opacity:1;"
         offset="0"
         id="stop4533" />
      <stop
         id="stop4535"
         offset="0.4375"
         style="stop-color:#ffffff;stop-opacity:0.23529412" />
      <stop
         style="stop-color:#ffffff;stop-opacity:0.15686275"
         offset="0.9375"
         id="stop4537" />
      <stop
         style="stop-color:#ffffff;stop-opacity:0.39215687"
         offset="1"
         id="stop4539" />
    </linearGradient>
    <linearGradient
       id="linearGradient4388">
      <stop
         id="stop4390"
         offset="0"
         style="stop-color:#492714;stop-opacity:0.62352943" />
      <stop
         id="stop4392"
         offset="1"
         style="stop-color:#6a3f1f;stop-opacity:0.76862746" />
    </linearGradient>
    <linearGradient
       id="linearGradient4380">
      <stop
         id="stop4382"
         offset="0"
         style="stop-color:#d28e5b;stop-opacity:1;" />
      <stop
         id="stop4384"
         offset="1"
         style="stop-color:#ae6a37;stop-opacity:1" />
    </linearGradient>
    <linearGradient
       id="linearGradient4366">
      <stop
         id="stop4368"
         offset="0"
         style="stop-color:#6db0de;stop-opacity:1;" />
      <stop
         id="stop4370"
         offset="1"
         style="stop-color:#a4cae4;stop-opacity:1" />
    </linearGradient>
    <linearGradient
       id="linearGradient4193-3">
      <stop
         style="stop-color:#d12e6c;stop-opacity:1"
         offset="0"
         id="stop4278" />
      <stop
         id="stop4282"
         offset="0.55000001"
         style="stop-color:#d12e6c;stop-opacity:1" />
      <stop
         style="stop-color:#ff66a1;stop-opacity:1"
         offset="1"
         id="stop4280" />
    </linearGradient>
    <linearGradient
       id="linearGradient4225">
      <stop
         id="stop4227"
         offset="0"
         style="stop-color:#e9e9e9;stop-opacity:1;" />
      <stop
         id="stop4229"
         offset="1"
         style="stop-color:#bfbfbf;stop-opacity:1" />
    </linearGradient>
    <linearGradient
       id="linearGradient4193">
      <stop
         id="stop4195"
         offset="0"
         style="stop-color:#ff66a1;stop-opacity:1" />
      <stop
         id="stop4197"
         offset="1"
         style="stop-color:#d12e6c;stop-opacity:1" />
    </linearGradient>
    <linearGradient
       id="linearGradient3688-166-749">
      <stop
         id="stop2883"
         style="stop-color:#181818;stop-opacity:1"
         offset="0" />
      <stop
         id="stop2885"
         style="stop-color:#181818;stop-opacity:0"
         offset="1" />
    </linearGradient>
    <linearGradient
       id="linearGradient3702-501-757">
      <stop
         id="stop2895"
         style="stop-color:#181818;stop-opacity:0"
         offset="0" />
      <stop
         id="stop2897"
         style="stop-color:#181818;stop-opacity:1"
         offset="0.5" />
      <stop
         id="stop2899"
         style="stop-color:#181818;stop-opacity:0"
         offset="1" />
    </linearGradient>
    <linearGradient
       gradientTransform="matrix(0.5,0,0,0.47727212,-0.5,548.94007)"
       gradientUnits="userSpaceOnUse"
       y2="1034.3621"
       x2="16"
       y1="1034.3621"
       x1="8"
       id="linearGradient4199"
       xlink:href="#linearGradient4193" />
    <linearGradient
       gradientTransform="matrix(0.5,0,0,0.47727211,-36.5,548.94)"
       gradientUnits="userSpaceOnUse"
       y2="1034.3622"
       x2="40"
       y1="1034.3622"
       x1="32"
       id="linearGradient4201"
       xlink:href="#linearGradient4193" />
    <linearGradient
       gradientTransform="matrix(0.47222222,0,0,0.5,3.6666667,524.18118)"
       gradientUnits="userSpaceOnUse"
       y2="1049.3622"
       x2="24"
       y1="1045.3622"
       x1="24"
       id="linearGradient4237"
       xlink:href="#linearGradient4225" />
    <linearGradient
       gradientTransform="matrix(0.47222223,0,0,0.5,3.6666666,524.18116)"
       y2="1049.3622"
       x2="24"
       y1="1045.3622"
       x1="24"
       gradientUnits="userSpaceOnUse"
       id="linearGradient4241"
       xlink:href="#linearGradient4225" />
    <linearGradient
       y2="1028.3622"
       x2="16"
       y1="1028.3622"
       x1="6"
       gradientTransform="matrix(0.4,0,0,0.4,-38.9,618.51728)"
       gradientUnits="userSpaceOnUse"
       id="linearGradient4297"
       xlink:href="#linearGradient4225" />
    <linearGradient
       gradientTransform="matrix(0.52941176,0,0,0.58823528,7.2941176,421.88448)"
       gradientUnits="userSpaceOnUse"
       y2="1023.3622"
       x2="24"
       y1="1014.3622"
       x1="24"
       id="linearGradient4372"
       xlink:href="#linearGradient4366" />
    <linearGradient
       gradientTransform="matrix(0.52941178,0,0,0.45454545,7.2941174,570.47038)"
       gradientUnits="userSpaceOnUse"
       y2="1046.3622"
       x2="16"
       y1="1023.3622"
       x1="16"
       id="linearGradient4386"
       xlink:href="#linearGradient4380" />
    <linearGradient
       gradientTransform="matrix(0.52941178,0,0,0.45454545,7.2941174,570.47038)"
       gradientUnits="userSpaceOnUse"
       y2="1046.3622"
       x2="32"
       y1="1023.3622"
       x1="32"
       id="linearGradient4394"
       xlink:href="#linearGradient4388" />
    <linearGradient
       gradientTransform="matrix(0.45454552,0,0,0.37500004,9.090908,652.78872)"
       gradientUnits="userSpaceOnUse"
       y2="1043.3622"
       x2="24"
       y1="1026.3622"
       x1="24"
       id="linearGradient4882"
       xlink:href="#linearGradient4388" />
    <radialGradient
       r="2.5"
       fy="43.5"
       fx="4.9929786"
       cy="43.5"
       cx="4.9929786"
       gradientTransform="matrix(2.003784,0,0,1.4,26.26039,-17.4)"
       gradientUnits="userSpaceOnUse"
       id="radialGradient3064"
       xlink:href="#linearGradient3688-166-749" />
    <radialGradient
       r="2.5"
       fy="43.5"
       fx="4.9929786"
       cy="43.5"
       cx="4.9929786"
       gradientTransform="matrix(2.003784,0,0,1.4,-21.739142,-104.4)"
       gradientUnits="userSpaceOnUse"
       id="radialGradient3066"
       xlink:href="#linearGradient3688-166-749" />
    <linearGradient
       gradientTransform="matrix(0.87665225,0,0,1,2.9607495,0)"
       y2="39.999443"
       x2="25.058096"
       y1="47.027729"
       x1="25.058096"
       gradientUnits="userSpaceOnUse"
       id="linearGradient3068"
       xlink:href="#linearGradient3702-501-757" />
    <linearGradient
       gradientTransform="translate(8,1028.3622)"
       gradientUnits="userSpaceOnUse"
       y2="14.999983"
       x2="12"
       y1="9.9999828"
       x1="12"
       id="linearGradient4472"
       xlink:href="#linearGradient4225" />
    <linearGradient
       y2="1028.3622"
       x2="16"
       y1="1028.3622"
       x1="6"
       gradientTransform="matrix(0.4,0,0,0.4,-38.9,618.51728)"
       gradientUnits="userSpaceOnUse"
       id="linearGradient4485"
       xlink:href="#linearGradient4225" />
    <radialGradient
       gradientUnits="userSpaceOnUse"
       gradientTransform="matrix(1,0,0,0.94117647,0,-3.4705882)"
       r="8.5"
       fy="13.25"
       fx="12"
       cy="13.25"
       cx="12"
       id="radialGradient4504"
       xlink:href="#linearGradient4193-3" />
    <linearGradient
       gradientUnits="userSpaceOnUse"
       y2="18"
       x2="12"
       y1="2"
       x1="12"
       id="linearGradient4529"
       xlink:href="#linearGradient4531" />
    <linearGradient
       gradientUnits="userSpaceOnUse"
       y2="4"
       x2="12"
       y1="0"
       x1="12"
       id="linearGradient4543"
       xlink:href="#linearGradient4225" />
  </defs>
  <metadata
     id="metadata7">
    <rdf:RDF>
      <cc:Work
         rdf:about="">
        <dc:format>image/svg+xml</dc:format>
        <dc:type
           rdf:resource="http://purl.org/dc/dcmitype/StillImage" />
        <dc:title></dc:title>
      </cc:Work>
    </rdf:RDF>
  </metadata>
  <g
     transform="translate(0,-1028.3622)"
     id="layer1">
    <g
       transform="matrix(0.5789476,0,0,0.42857134,-1.894738,1031.2193)"
       id="g3712"
       style="opacity:1">
      <rect
         width="5"
         height="7"
         x="36.272259"
         y="40"
         id="rect2801"
         style="fill:url(#radialGradient3064);fill-opacity:1;stroke:none;opacity:0.4" />
      <rect
         width="5"
         height="7"
         x="-11.727272"
         y="-47"
         transform="scale(-1,-1)"
         id="rect3696"
         style="fill:url(#radialGradient3066);fill-opacity:1;stroke:none;opacity:0.4" />
      <rect
         width="24.546263"
         height="7.0000005"
         x="11.727272"
         y="40"
         id="rect3700"
         style="fill:url(#linearGradient3068);fill-opacity:1;stroke:none;opacity:0.4" />
    </g>
    <g
       transform="translate(-8,14)"
       id="g4272">
      <circle
         r="2.5"
         cy="1023.3622"
         cx="20"
         style="opacity:1;fill:#1a1a1a;fill-opacity:1;stroke:#000000;stroke-width:1;stroke-linecap:square;stroke-linejoin:round;stroke-miterlimit:4;stroke-dasharray:none;stroke-opacity:1"
         id="path4238" />
      <path
         d="m 15.5,1023.8622 a 4.5,5 0 0 1 4.5,-5 4.5,5 0 0 1 4.5,5 l -4.5,0 z"
         style="opacity:0.8;fill:url(#linearGradient4372);fill-opacity:1;stroke:none;stroke-width:1;stroke-linecap:square;stroke-linejoin:round;stroke-miterlimit:4;stroke-dasharray:none;stroke-opacity:1"
         id="path4362" />
      <path
         d="m 15.5,1023.8622 a 4.5,5 0 0 1 4.5,-5 4.5,5 0 0 1 4.5,5 l -4.5,0 z"
         id="path4364"
         style="opacity:1;fill:none;fill-opacity:1;stroke:#6490b1;stroke-width:1;stroke-linecap:square;stroke-linejoin:round;stroke-miterlimit:4;stroke-dasharray:none;stroke-opacity:1" />
    </g>
    <rect
       y="1037.3622"
       x="3.5"
       height="10.5"
       width="4"
       id="rect4171"
       style="opacity:1;fill:url(#linearGradient4199);fill-opacity:1;stroke:none;stroke-width:1;stroke-linecap:square;stroke-linejoin:round;stroke-miterlimit:4;stroke-dasharray:none;stroke-opacity:1" />
    <rect
       transform="scale(-1,1)"
       style="opacity:1;fill:url(#linearGradient4201);fill-opacity:1;stroke:none;stroke-width:1;stroke-linecap:square;stroke-linejoin:round;stroke-miterlimit:4;stroke-dasharray:none;stroke-opacity:1"
       id="rect4175"
       width="4"
       height="10.5"
       x="-20.5"
       y="1037.3622" />
    <g
       transform="translate(-8,2.0000174)"
       id="g4262">
      <rect
         style="opacity:1;fill:url(#linearGradient4386);fill-opacity:1;stroke:url(#linearGradient4394);stroke-width:0.99999988;stroke-linecap:square;stroke-linejoin:round;stroke-miterlimit:4;stroke-dasharray:none;stroke-opacity:1"
         id="rect4378"
         width="9"
         height="10"
         x="15.5"
         y="1035.8623" />
      <rect
         y="1036.3622"
         x="16"
         height="1"
         width="8"
         id="rect4434"
         style="opacity:0.3;fill:#ffffff;fill-opacity:1;stroke:none;stroke-width:1;stroke-linecap:square;stroke-linejoin:round;stroke-miterlimit:4;stroke-dasharray:none;stroke-opacity:1" />
      <rect
         y="1044.3622"
         x="17"
         height="1"
         width="6"
         id="rect4504"
         style="opacity:0.4;fill:#ffffff;fill-opacity:1;stroke:none;stroke-width:1;stroke-linecap:square;stroke-linejoin:round;stroke-miterlimit:4;stroke-dasharray:none;stroke-opacity:1"
         rx="1"
         ry="1" />
      <rect
         style="opacity:0.6;fill:#000000;fill-opacity:1;stroke:none;stroke-width:0.99999976;stroke-linecap:square;stroke-linejoin:round;stroke-miterlimit:4;stroke-dasharray:none;stroke-opacity:1"
         id="rect4643"
         width="5"
         height="6"
         x="17.5"
         y="1037.8621" />
      <rect
         y="1037.8621"
         x="17.5"
         height="6.0000005"
         width="5.0000005"
         id="rect4496"
         style="opacity:1;fill:none;fill-opacity:1;stroke:url(#linearGradient4882);stroke-width:0.99999982;stroke-linecap:square;stroke-linejoin:round;stroke-miterlimit:4;stroke-dasharray:none;stroke-opacity:1" />
      <path
         id="rect4443"
         d="m 18,1038.3622 0,1 1,0 0,-1 z m 1,1 0,1 1,0 0,-1 z m 1,0 1,0 0,-1 -1,0 z m 1,0 0,1 1,0 0,-1 z m 0,1 -1,0 0,1 1,0 z m 0,1 0,1 1,0 0,-1 z m 0,1 -1,0 0,1 1,0 z m 0,1 z m -1,0 -1,0 z m -1,0 0,-1 -1,0 0,1 z m 0,-1 1,0 0,-1 -1,0 z m 0,-1 0,-1 -1,0 0,1 z"
         style="opacity:1;fill:url(#linearGradient4472);fill-opacity:1;stroke:none;stroke-width:1;stroke-linecap:square;stroke-linejoin:round;stroke-miterlimit:4;stroke-dasharray:none;stroke-opacity:1" />
    </g>
    <path
       id="path4487"
       transform="translate(0,1028.3622)"
       d="M 12 0.5 A 8.5 8.5 0 0 0 3.5 9 L 7.5 9 A 4.5 4.5 0 0 1 12 4.5 A 4.5 4.5 0 0 1 16.5 9 L 20.5 9 A 8.5 8.5 0 0 0 12 0.5 z "
       style="opacity:1;fill:url(#radialGradient4504);fill-opacity:1;stroke:none;stroke-width:1;stroke-linecap:square;stroke-linejoin:round;stroke-miterlimit:4;stroke-dasharray:none;stroke-opacity:1" />
    <path
       id="rect4506"
       transform="translate(0,1028.3622)"
       d="M 12 0.5 A 8.5 8.5 0 0 0 3.5 9 L 3.5 19.5 L 7.5 19.5 L 7.5 9 A 4.5 4.5 0 0 1 12 4.5 A 4.5 4.5 0 0 1 16.5 9 L 16.5 19.5 L 20.5 19.5 L 20.5 9 A 8.5 8.5 0 0 0 12 0.5 z "
       style="opacity:0.7;fill:none;fill-opacity:1;stroke:#850234;stroke-width:1;stroke-linecap:square;stroke-linejoin:round;stroke-miterlimit:4;stroke-dasharray:none;stroke-opacity:1" />
    <g
       transform="translate(-3,1)"
       id="g4256">
      <rect
         y="1046.8622"
         x="6.5"
         height="2"
         width="17"
         id="rect4177"
         style="opacity:1;fill:url(#linearGradient4237);fill-opacity:1;stroke:none;stroke-width:1;stroke-linecap:square;stroke-linejoin:round;stroke-miterlimit:4;stroke-dasharray:none;stroke-opacity:1" />
      <rect
         style="opacity:0.3;fill:url(#linearGradient4241);fill-opacity:1;stroke:#000000;stroke-width:1;stroke-linecap:square;stroke-linejoin:round;stroke-miterlimit:4;stroke-dasharray:none;stroke-opacity:1"
         id="rect4239"
         width="17"
         height="2"
         x="6.5"
         y="1046.8622" />
    </g>
    <path
       id="rect4515"
       transform="translate(0,1028.3622)"
       d="M 12 1.5 A 7.5 7.5 0 0 0 4.5 9 L 4.5 18.5 L 6.5 18.5 L 6.5 9 A 5.5 5.5 0 0 1 12 3.5 A 5.5 5.5 0 0 1 17.5 9 L 17.5 18.5 L 19.5 18.5 L 19.5 9 A 7.5 7.5 0 0 0 12 1.5 z "
       style="opacity:0.4;fill:none;fill-opacity:1;stroke:url(#linearGradient4529);stroke-width:1;stroke-linecap:square;stroke-linejoin:round;stroke-miterlimit:4;stroke-dasharray:none;stroke-opacity:1" />
    <g
       transform="translate(-16,10.000017)"
       id="g4302">
      <rect
         transform="scale(-1,1)"
         style="opacity:1;fill:url(#linearGradient4297);fill-opacity:1;stroke:none;stroke-width:1;stroke-linecap:square;stroke-linejoin:round;stroke-miterlimit:4;stroke-dasharray:none;stroke-opacity:1"
         id="rect4293"
         width="4"
         height="4"
         x="-36.5"
         y="1027.8622" />
      <rect
         y="1027.8622"
         x="32.5"
         height="4"
         width="4"
         id="rect4295"
         style="opacity:0.3;fill:none;fill-opacity:1;stroke:#000000;stroke-width:1;stroke-linecap:square;stroke-linejoin:round;stroke-miterlimit:4;stroke-dasharray:none;stroke-opacity:1" />
      <rect
         y="-36"
         x="1029.3622"
         height="3"
         width="1"
         id="rect4490"
         style="opacity:0.3;fill:#000000;fill-opacity:1;stroke:none;stroke-width:1;stroke-linecap:square;stroke-linejoin:round;stroke-miterlimit:4;stroke-dasharray:none;stroke-opacity:1"
         transform="matrix(0,1,-1,0,0,0)" />
    </g>
    <g
       id="g4477"
       transform="matrix(-1,0,0,1,40,10.000017)">
      <rect
         y="1027.8622"
         x="-36.5"
         height="4"
         width="4"
         id="rect4479"
         style="opacity:1;fill:url(#linearGradient4485);fill-opacity:1;stroke:none;stroke-width:1;stroke-linecap:square;stroke-linejoin:round;stroke-miterlimit:4;stroke-dasharray:none;stroke-opacity:1"
         transform="scale(-1,1)" />
      <rect
         style="opacity:0.3;fill:none;fill-opacity:1;stroke:#000000;stroke-width:1;stroke-linecap:square;stroke-linejoin:round;stroke-miterlimit:4;stroke-dasharray:none;stroke-opacity:1"
         id="rect4481"
         width="4"
         height="4"
         x="32.5"
         y="1027.8622" />
      <rect
         transform="matrix(0,1,-1,0,0,0)"
         style="opacity:0.3;fill:#000000;fill-opacity:1;stroke:none;stroke-width:1;stroke-linecap:square;stroke-linejoin:round;stroke-miterlimit:4;stroke-dasharray:none;stroke-opacity:1"
         id="rect4483"
         width="1"
         height="3"
         x="1029.3622"
         y="-36" />
    </g>
    <path
       id="path4495"
       transform="translate(0,1028.3622)"
       d="M 12.0625 0.5 A 8.5 8.5 0 0 0 8.7480469 1.1464844 L 10.279297 4.8457031 A 4.5 4.5 0 0 1 12 4.5 A 4.5 4.5 0 0 1 13.720703 4.84375 L 15.251953 1.1464844 A 8.5 8.5 0 0 0 12.0625 0.5 z "
       style="opacity:1;fill:url(#linearGradient4543);fill-opacity:1;stroke:none;stroke-width:1;stroke-linecap:square;stroke-linejoin:round;stroke-miterlimit:4;stroke-dasharray:none;stroke-opacity:1" />
    <path
       style="opacity:0.3;fill:none;fill-opacity:1;stroke:#000000;stroke-width:1;stroke-linecap:square;stroke-linejoin:round;stroke-miterlimit:4;stroke-dasharray:none;stroke-opacity:1"
       d="M 12.0625 0.5 A 8.5 8.5 0 0 0 8.7480469 1.1464844 L 10.279297 4.8457031 A 4.5 4.5 0 0 1 12 4.5 A 4.5 4.5 0 0 1 13.720703 4.84375 L 15.251953 1.1464844 A 8.5 8.5 0 0 0 12.0625 0.5 z "
       transform="translate(0,1028.3622)"
       id="path4545" />
  </g>
</svg>
