<?xml version="1.0" encoding="UTF-8" standalone="no"?>
<svg
   xmlns:dc="http://purl.org/dc/elements/1.1/"
   xmlns:cc="http://creativecommons.org/ns#"
   xmlns:rdf="http://www.w3.org/1999/02/22-rdf-syntax-ns#"
   xmlns:svg="http://www.w3.org/2000/svg"
   xmlns="http://www.w3.org/2000/svg"
   xmlns:xlink="http://www.w3.org/1999/xlink"
   width="16"
   height="16"
   viewBox="0 0 16 16"
   id="svg2"
   version="1.1">
  <defs
     id="defs4">
    <linearGradient
       id="linearGradient4388">
      <stop
         style="stop-color:#492714;stop-opacity:0.62352943"
         offset="0"
         id="stop4390" />
      <stop
         style="stop-color:#6a3f1f;stop-opacity:0.76862746"
         offset="1"
         id="stop4392" />
    </linearGradient>
    <linearGradient
       id="linearGradient4380">
      <stop
         style="stop-color:#d28e5b;stop-opacity:1;"
         offset="0"
         id="stop4382" />
      <stop
         style="stop-color:#ae6a37;stop-opacity:1"
         offset="1"
         id="stop4384" />
    </linearGradient>
    <linearGradient
       id="linearGradient4366">
      <stop
         style="stop-color:#6db0de;stop-opacity:1;"
         offset="0"
         id="stop4368" />
      <stop
         style="stop-color:#a4cae4;stop-opacity:1"
         offset="1"
         id="stop4370" />
    </linearGradient>
    <linearGradient
       id="linearGradient4193-3">
      <stop
         id="stop4278"
         offset="0"
         style="stop-color:#d12e6c;stop-opacity:1" />
      <stop
         style="stop-color:#d12e6c;stop-opacity:1"
         offset="0.55000001"
         id="stop4282" />
      <stop
         id="stop4280"
         offset="1"
         style="stop-color:#ff66a1;stop-opacity:1" />
    </linearGradient>
    <linearGradient
       id="linearGradient4225">
      <stop
         style="stop-color:#e9e9e9;stop-opacity:1;"
         offset="0"
         id="stop4227" />
      <stop
         style="stop-color:#bfbfbf;stop-opacity:1"
         offset="1"
         id="stop4229" />
    </linearGradient>
    <linearGradient
       id="linearGradient4193">
      <stop
         style="stop-color:#ff66a1;stop-opacity:1"
         offset="0"
         id="stop4195" />
      <stop
         style="stop-color:#d12e6c;stop-opacity:1"
         offset="1"
         id="stop4197" />
    </linearGradient>
    <linearGradient
       xlink:href="#linearGradient4193"
       id="linearGradient4199"
       x1="8"
       y1="1034.3621"
       x2="16"
       y2="1034.3621"
       gradientUnits="userSpaceOnUse"
       gradientTransform="matrix(0.375,0,0,0.29545421,-0.5,-296.35658)" />
    <linearGradient
       xlink:href="#linearGradient4193"
       id="linearGradient4201"
       x1="32"
       y1="1034.3622"
       x2="40"
       y2="1034.3622"
       gradientUnits="userSpaceOnUse"
       gradientTransform="matrix(0.375,0,0,0.29545416,-25.5,-296.35661)" />
    <linearGradient
       xlink:href="#linearGradient4225"
       id="linearGradient4237"
       x1="24"
       y1="1045.3622"
       x2="24"
       y2="1049.3622"
       gradientUnits="userSpaceOnUse"
       gradientTransform="matrix(0.30555556,0,0,0.5,3.6666667,525.1812)" />
    <linearGradient
       xlink:href="#linearGradient4380"
       id="linearGradient4386"
       x1="16"
       y1="1023.3622"
       x2="16"
       y2="1046.3622"
       gradientUnits="userSpaceOnUse"
       gradientTransform="matrix(0.29411764,0,0,0.27272729,0.9411747,763.62686)" />
    <linearGradient
       xlink:href="#linearGradient4388"
       id="linearGradient4394"
       x1="32"
       y1="1023.3622"
       x2="32"
       y2="1046.3622"
       gradientUnits="userSpaceOnUse"
       gradientTransform="matrix(0.29411764,0,0,0.27272729,0.9411747,763.62686)" />
    <linearGradient
       xlink:href="#linearGradient4225"
       id="linearGradient6077"
       gradientUnits="userSpaceOnUse"
       gradientTransform="matrix(0.3,0,0,0.2,-26.3,833.18973)"
       x1="6"
       y1="1028.3622"
       x2="16"
       y2="1028.3622" />
    <linearGradient
       gradientTransform="translate(-13.1,0.80000332)"
       gradientUnits="userSpaceOnUse"
       y2="1033.5623"
       x2="26.1"
       y1="1029.5623"
       x1="26.1"
       id="linearGradient4325"
       xlink:href="#linearGradient4366" />
    <linearGradient
       gradientUnits="userSpaceOnUse"
       y2="11"
       x2="8"
       y1="8"
       x1="8"
       id="linearGradient4331"
       xlink:href="#linearGradient4225" />
    <linearGradient
       y2="1028.3622"
       x2="16"
       y1="1028.3622"
       x1="6"
       gradientTransform="matrix(0.3,0,0,0.2,-26.3,833.18973)"
       gradientUnits="userSpaceOnUse"
       id="linearGradient4339"
       xlink:href="#linearGradient4225" />
    <radialGradient
       gradientUnits="userSpaceOnUse"
       gradientTransform="matrix(1,0,0,0.90909091,0,-1.9545455)"
       r="5.5"
       fy="8.75"
       fx="8"
       cy="8.75"
       cx="8"
       id="radialGradient4350"
       xlink:href="#linearGradient4193-3" />
    <linearGradient
       gradientUnits="userSpaceOnUse"
       y2="3"
       x2="8"
       y1="0"
       x1="8"
       id="linearGradient4362"
       xlink:href="#linearGradient4225" />
  </defs>
  <metadata
     id="metadata7">
    <rdf:RDF>
      <cc:Work
         rdf:about="">
        <dc:format>image/svg+xml</dc:format>
        <dc:type
           rdf:resource="http://purl.org/dc/dcmitype/StillImage" />
        <dc:title></dc:title>
      </cc:Work>
    </rdf:RDF>
  </metadata>
  <g
     transform="translate(-5,-1027.3622)"
     id="g6175">
    <path
       d="m 10.5,1033.8622 a 2.5,3 0 0 1 2.5,-3 2.5,3 0 0 1 2.5,3 l -2.5,0 z"
       style="opacity:0.8;fill:url(#linearGradient4325);fill-opacity:1;stroke:none;stroke-width:1;stroke-linecap:square;stroke-linejoin:round;stroke-miterlimit:4;stroke-dasharray:none;stroke-opacity:1"
       id="ellipse4323" />
    <path
       d="m 10.5,1033.8622 a 2.5,3 0 0 1 2.5,-3 2.5,3 0 0 1 2.5,3 l -2.5,0 z"
       id="path4306"
       style="opacity:1;fill:none;fill-opacity:1;stroke:#6490b1;stroke-width:1;stroke-linecap:square;stroke-linejoin:round;stroke-miterlimit:4;stroke-dasharray:none;stroke-opacity:1" />
  </g>
  <rect
     y="5.999999"
     x="2.5"
     height="6.5"
     width="3"
     id="rect4171"
     style="opacity:1;fill:url(#linearGradient4199);fill-opacity:1;stroke:none;stroke-width:1;stroke-linecap:square;stroke-linejoin:round;stroke-miterlimit:4;stroke-dasharray:none;stroke-opacity:1" />
  <rect
     transform="scale(-1,1)"
     style="opacity:1;fill:url(#linearGradient4201);fill-opacity:1;stroke:none;stroke-width:1;stroke-linecap:square;stroke-linejoin:round;stroke-miterlimit:4;stroke-dasharray:none;stroke-opacity:1"
     id="rect4175"
     width="3"
     height="6.5"
     x="-13.5"
     y="5.9999828" />
  <g
     transform="translate(0,-1036.3622)"
     id="g6079">
    <rect
       style="opacity:1;fill:url(#linearGradient4386);fill-opacity:1;stroke:url(#linearGradient4394);stroke-width:1;stroke-linecap:square;stroke-linejoin:round;stroke-miterlimit:4;stroke-dasharray:none;stroke-opacity:1"
       id="rect4378"
       width="5"
       height="6"
       x="5.499999"
       y="1042.8619" />
    <rect
       style="opacity:0.6;fill:#000000;fill-opacity:1;stroke:none;stroke-width:0.99999976;stroke-linecap:square;stroke-linejoin:round;stroke-miterlimit:4;stroke-dasharray:none;stroke-opacity:1"
       id="rect4643"
       width="2"
       height="3"
       x="7"
       y="1044.3622" />
    <path
       id="rect4300"
       transform="translate(0,1036.3622)"
       d="M 7 8 L 7 9 L 8 9 L 8 8 L 7 8 z M 8 9 L 8 10 L 9 10 L 9 9 L 8 9 z M 8 10 L 7 10 L 7 11 L 8 11 L 8 10 z "
       style="opacity:1;fill:url(#linearGradient4331);fill-opacity:1;stroke:none;stroke-width:1;stroke-linecap:square;stroke-linejoin:round;stroke-miterlimit:4;stroke-dasharray:none;stroke-opacity:1" />
  </g>
  <path
     id="path4341"
     d="M 8 0.5 A 5.5 5.5 0 0 0 2.5 6 L 5.5 6 A 2.5 2.5 0 0 1 8 3.5 A 2.5 2.5 0 0 1 10.5 6 L 13.5 6 A 5.5 5.5 0 0 0 8 0.5 z "
     style="opacity:1;fill:url(#radialGradient4350);fill-opacity:1;stroke:none;stroke-width:1;stroke-linecap:square;stroke-linejoin:round;stroke-miterlimit:4;stroke-dasharray:none;stroke-opacity:1" />
  <path
     id="rect4352"
     d="M 8 0.5 A 5.5 5.5 0 0 0 2.5 6 L 2.5 12.5 L 5.5 12.5 L 5.5 6 A 2.5 2.5 0 0 1 8 3.5 A 2.5 2.5 0 0 1 10.5 6 L 10.5 12.5 L 13.5 12.5 L 13.5 6 A 5.5 5.5 0 0 0 8 0.5 z "
     style="opacity:0.7;fill:none;fill-opacity:1;stroke:#850234;stroke-width:1;stroke-linecap:square;stroke-linejoin:round;stroke-miterlimit:4;stroke-dasharray:none;stroke-opacity:1" />
  <g
     transform="translate(-3,-1035.3622)"
     id="g6089">
    <rect
       y="1047.8622"
       x="5.5"
       height="2"
       width="11"
       id="rect4177"
       style="opacity:1;fill:url(#linearGradient4237);fill-opacity:1;stroke:none;stroke-width:1;stroke-linecap:square;stroke-linejoin:round;stroke-miterlimit:4;stroke-dasharray:none;stroke-opacity:1" />
    <rect
       style="opacity:0.3;fill:none;fill-opacity:1;stroke:#000000;stroke-width:1;stroke-linecap:square;stroke-linejoin:round;stroke-miterlimit:4;stroke-dasharray:none;stroke-opacity:1"
       id="rect4239"
       width="11"
       height="2"
       x="5.5"
       y="1047.8622" />
  </g>
  <g
     transform="translate(-11,-1031.3622)"
     id="g6185">
    <rect
       transform="scale(-1,1)"
       style="opacity:1;fill:url(#linearGradient6077);fill-opacity:1;stroke:none;stroke-width:1;stroke-linecap:square;stroke-linejoin:round;stroke-miterlimit:4;stroke-dasharray:none;stroke-opacity:1"
       id="rect6069"
       width="3"
       height="2"
       x="-24.5"
       y="1037.8622" />
    <rect
       y="1037.8622"
       x="21.5"
       height="2"
       width="3"
       id="rect6071"
       style="opacity:0.3;fill:none;fill-opacity:1;stroke:#000000;stroke-width:0.99999988;stroke-linecap:square;stroke-linejoin:round;stroke-miterlimit:4;stroke-dasharray:none;stroke-opacity:1" />
  </g>
  <g
     id="g4333"
     transform="matrix(-1,0,0,1,27,-1031.3622)">
    <rect
       y="1037.8622"
       x="-24.5"
       height="2"
       width="3"
       id="rect4335"
       style="opacity:1;fill:url(#linearGradient4339);fill-opacity:1;stroke:none;stroke-width:1;stroke-linecap:square;stroke-linejoin:round;stroke-miterlimit:4;stroke-dasharray:none;stroke-opacity:1"
       transform="scale(-1,1)" />
    <rect
       style="opacity:0.3;fill:none;fill-opacity:1;stroke:#000000;stroke-width:0.99999988;stroke-linecap:square;stroke-linejoin:round;stroke-miterlimit:4;stroke-dasharray:none;stroke-opacity:1"
       id="rect4337"
       width="3"
       height="2"
       x="21.5"
       y="1037.8622" />
  </g>
  <path
     id="circle4345"
     d="M 8.0410156 0.5 A 5.5 5.5 0 0 0 5.8945312 0.91796875 L 7.0429688 3.6914062 A 2.5 2.5 0 0 1 8 3.5 A 2.5 2.5 0 0 1 8.9570312 3.6914062 L 10.105469 0.91796875 A 5.5 5.5 0 0 0 8.0410156 0.5 z "
     style="opacity:1;fill:url(#linearGradient4362);fill-opacity:1;stroke:none;stroke-width:1;stroke-linecap:square;stroke-linejoin:round;stroke-miterlimit:4;stroke-dasharray:none;stroke-opacity:1" />
  <path
     style="opacity:0.3;fill:none;fill-opacity:1;stroke:#000000;stroke-width:1;stroke-linecap:square;stroke-linejoin:round;stroke-miterlimit:4;stroke-dasharray:none;stroke-opacity:1.0"
     d="M 8.0410156 0.5 A 5.5 5.5 0 0 0 5.8945312 0.91796875 L 7.0429688 3.6914062 A 2.5 2.5 0 0 1 8 3.5 A 2.5 2.5 0 0 1 8.9570312 3.6914062 L 10.105469 0.91796875 A 5.5 5.5 0 0 0 8.0410156 0.5 z "
     id="path4364" />
</svg>
