<?xml version="1.0" encoding="UTF-8" standalone="no"?>
<svg
   xmlns:dc="http://purl.org/dc/elements/1.1/"
   xmlns:cc="http://creativecommons.org/ns#"
   xmlns:rdf="http://www.w3.org/1999/02/22-rdf-syntax-ns#"
   xmlns:svg="http://www.w3.org/2000/svg"
   xmlns="http://www.w3.org/2000/svg"
   xmlns:xlink="http://www.w3.org/1999/xlink"
   version="1.1"
   id="svg2"
   viewBox="0 0 32 32.000001"
   height="32"
   width="32">
  <defs
     id="defs4">
    <linearGradient
       id="linearGradient6165">
      <stop
         style="stop-color:#ffffff;stop-opacity:1;"
         offset="0"
         id="stop6167" />
      <stop
         id="stop6169"
         offset="0.44999999"
         style="stop-color:#ffffff;stop-opacity:0.23529412" />
      <stop
         style="stop-color:#ffffff;stop-opacity:0.15686275"
         offset="0.55000001"
         id="stop6171" />
      <stop
         style="stop-color:#ffffff;stop-opacity:0.39215687"
         offset="1"
         id="stop6173" />
    </linearGradient>
    <linearGradient
       id="linearGradient4388">
      <stop
         id="stop4390"
         offset="0"
         style="stop-color:#492714;stop-opacity:0.62352943" />
      <stop
         id="stop4392"
         offset="1"
         style="stop-color:#6a3f1f;stop-opacity:0.76862746" />
    </linearGradient>
    <linearGradient
       id="linearGradient4380">
      <stop
         id="stop4382"
         offset="0"
         style="stop-color:#d28e5b;stop-opacity:1;" />
      <stop
         id="stop4384"
         offset="1"
         style="stop-color:#ae6a37;stop-opacity:1" />
    </linearGradient>
    <linearGradient
       id="linearGradient4366">
      <stop
         id="stop4368"
         offset="0"
         style="stop-color:#6db0de;stop-opacity:1;" />
      <stop
         id="stop4370"
         offset="1"
         style="stop-color:#a4cae4;stop-opacity:1" />
    </linearGradient>
    <linearGradient
       id="linearGradient4340">
      <stop
         id="stop4342"
         offset="0"
         style="stop-color:#ffffff;stop-opacity:1;" />
      <stop
         style="stop-color:#ffffff;stop-opacity:0.23529412"
         offset="0.40909091"
         id="stop4348" />
      <stop
         id="stop4358"
         offset="0.95454544"
         style="stop-color:#ffffff;stop-opacity:0.15686275" />
      <stop
         id="stop4344"
         offset="1"
         style="stop-color:#ffffff;stop-opacity:0.39215687" />
    </linearGradient>
    <linearGradient
       id="linearGradient4193-3">
      <stop
         style="stop-color:#d12e6c;stop-opacity:1"
         offset="0"
         id="stop4278" />
      <stop
         id="stop4282"
         offset="0.55000001"
         style="stop-color:#d12e6c;stop-opacity:1" />
      <stop
         style="stop-color:#ff66a1;stop-opacity:1"
         offset="1"
         id="stop4280" />
    </linearGradient>
    <linearGradient
       id="linearGradient4225">
      <stop
         id="stop4227"
         offset="0"
         style="stop-color:#e9e9e9;stop-opacity:1;" />
      <stop
         id="stop4229"
         offset="1"
         style="stop-color:#bfbfbf;stop-opacity:1" />
    </linearGradient>
    <linearGradient
       id="linearGradient4193">
      <stop
         id="stop4195"
         offset="0"
         style="stop-color:#ff66a1;stop-opacity:1" />
      <stop
         id="stop4197"
         offset="1"
         style="stop-color:#d12e6c;stop-opacity:1" />
    </linearGradient>
    <linearGradient
       id="linearGradient3688-166-749">
      <stop
         id="stop2883"
         style="stop-color:#181818;stop-opacity:1"
         offset="0" />
      <stop
         id="stop2885"
         style="stop-color:#181818;stop-opacity:0"
         offset="1" />
    </linearGradient>
    <linearGradient
       id="linearGradient3702-501-757">
      <stop
         id="stop2895"
         style="stop-color:#181818;stop-opacity:0"
         offset="0" />
      <stop
         id="stop2897"
         style="stop-color:#181818;stop-opacity:1"
         offset="0.5" />
      <stop
         id="stop2899"
         style="stop-color:#181818;stop-opacity:0"
         offset="1" />
    </linearGradient>
    <linearGradient
       gradientTransform="matrix(0.625,0,0,0.65909006,0.5,358.87452)"
       gradientUnits="userSpaceOnUse"
       y2="1034.3621"
       x2="16"
       y1="1034.3621"
       x1="8"
       id="linearGradient4199"
       xlink:href="#linearGradient4193" />
    <linearGradient
       gradientTransform="matrix(0.625,0,0,0.65909006,-46.5,358.8744)"
       gradientUnits="userSpaceOnUse"
       y2="1034.3622"
       x2="40"
       y1="1034.3622"
       x1="32"
       id="linearGradient4201"
       xlink:href="#linearGradient4193" />
    <linearGradient
       gradientTransform="matrix(0.5,0,0,0.6,2.5,419.84483)"
       gradientUnits="userSpaceOnUse"
       y2="1028.3622"
       x2="16"
       y1="1028.3622"
       x1="6"
       id="linearGradient4231"
       xlink:href="#linearGradient4225" />
    <linearGradient
       gradientTransform="matrix(0.63888889,0,0,0.5,0.6666667,525.1812)"
       gradientUnits="userSpaceOnUse"
       y2="1049.3622"
       x2="24"
       y1="1045.3622"
       x1="24"
       id="linearGradient4237"
       xlink:href="#linearGradient4225" />
    <linearGradient
       gradientTransform="matrix(0.64705882,0,0,0.70588233,0.47058824,311.48894)"
       gradientUnits="userSpaceOnUse"
       y2="1023.3622"
       x2="24"
       y1="1014.3622"
       x1="24"
       id="linearGradient4372"
       xlink:href="#linearGradient4366" />
    <linearGradient
       gradientTransform="matrix(0.64705882,0,0,0.63636368,0.47058528,382.31337)"
       gradientUnits="userSpaceOnUse"
       y2="1046.3622"
       x2="16"
       y1="1023.3622"
       x1="16"
       id="linearGradient4386"
       xlink:href="#linearGradient4380" />
    <linearGradient
       gradientTransform="matrix(0.64705882,0,0,0.63636368,0.47058528,382.31337)"
       gradientUnits="userSpaceOnUse"
       y2="1046.3622"
       x2="32"
       y1="1023.3622"
       x1="32"
       id="linearGradient4394"
       xlink:href="#linearGradient4388" />
    <linearGradient
       gradientTransform="matrix(0.63636377,0,0,0.62500014,0.72726927,394.07304)"
       gradientUnits="userSpaceOnUse"
       y2="1043.3622"
       x2="24"
       y1="1026.3622"
       x1="24"
       id="linearGradient4882"
       xlink:href="#linearGradient4388" />
    <radialGradient
       cx="4.9929786"
       cy="43.5"
       r="2.5"
       fx="4.9929786"
       fy="43.5"
       id="radialGradient3163"
       xlink:href="#linearGradient3688-166-749"
       gradientUnits="userSpaceOnUse"
       gradientTransform="matrix(1.4764724,0,0,0.79999994,17.938834,1014.5622)" />
    <radialGradient
       cx="4.9929786"
       cy="43.5"
       r="2.5"
       fx="4.9929786"
       fy="43.5"
       id="radialGradient3165"
       xlink:href="#linearGradient3688-166-749"
       gradientUnits="userSpaceOnUse"
       gradientTransform="matrix(1.4764724,0,0,0.79999994,-14.061378,-1084.1622)" />
    <linearGradient
       gradientTransform="matrix(0.66542856,0,0,0.57142853,0.0297144,1024.5051)"
       x1="25.058096"
       y1="47.027729"
       x2="25.058096"
       y2="39.999443"
       id="linearGradient3167"
       xlink:href="#linearGradient3702-501-757"
       gradientUnits="userSpaceOnUse" />
    <linearGradient
       gradientUnits="userSpaceOnUse"
       y2="25"
       x2="16"
       y1="16"
       x1="16"
       id="linearGradient5409"
       xlink:href="#linearGradient4225" />
    <linearGradient
       y2="1028.3622"
       x2="16"
       y1="1028.3622"
       x1="6"
       gradientTransform="matrix(0.5,0,0,0.6,-29.5,419.84483)"
       gradientUnits="userSpaceOnUse"
       id="linearGradient6077"
       xlink:href="#linearGradient4225" />
    <radialGradient
       gradientUnits="userSpaceOnUse"
       gradientTransform="matrix(1,0,0,0.95238012,0,44.208591)"
       r="10.5"
       fy="1038.6122"
       fx="16"
       cy="1038.6122"
       cx="16"
       id="radialGradient6102"
       xlink:href="#linearGradient4193-3" />
    <linearGradient
       gradientUnits="userSpaceOnUse"
       y2="26"
       x2="16"
       y1="4"
       x1="16"
       id="linearGradient6122"
       xlink:href="#linearGradient4340" />
    <linearGradient
       gradientUnits="userSpaceOnUse"
       y2="8"
       x2="16"
       y1="2"
       x1="16"
       id="linearGradient6153"
       xlink:href="#linearGradient4225" />
    <linearGradient
       gradientUnits="userSpaceOnUse"
       y2="7"
       x2="16"
       y1="3"
       x1="16"
       id="linearGradient6163"
       xlink:href="#linearGradient6165" />
  </defs>
  <metadata
     id="metadata7">
    <rdf:RDF>
      <cc:Work
         rdf:about="">
        <dc:format>image/svg+xml</dc:format>
        <dc:type
           rdf:resource="http://purl.org/dc/dcmitype/StillImage" />
        <dc:title></dc:title>
      </cc:Work>
    </rdf:RDF>
  </metadata>
  <g
     transform="translate(0,-1020.3622)"
     id="layer1">
    <g
       id="g6175">
      <circle
         style="opacity:1;fill:#1a1a1a;fill-opacity:1;stroke:#000000;stroke-width:1;stroke-linecap:square;stroke-linejoin:round;stroke-miterlimit:4;stroke-dasharray:none;stroke-opacity:1"
         id="path4238"
         cx="16"
         cy="1033.3619"
         r="2.5" />
      <path
         style="opacity:0.8;fill:url(#linearGradient4372);fill-opacity:1;stroke:none;stroke-width:1;stroke-linecap:square;stroke-linejoin:round;stroke-miterlimit:4;stroke-dasharray:none;stroke-opacity:1"
         id="path4362"
         d="m 10.5,1033.8622 a 5.5,6 0 0 1 5.5,-6 5.5,6 0 0 1 5.5,6 l -5.5,0 z" />
      <path
         id="path4364"
         style="opacity:1;fill:none;fill-opacity:1;stroke:#6490b1;stroke-width:1;stroke-linecap:square;stroke-linejoin:round;stroke-miterlimit:4;stroke-dasharray:none;stroke-opacity:1"
         d="m 10.5,1033.8622 a 5.5,6 0 0 1 5.5,-6 5.5,6 0 0 1 5.5,6 l -5.5,0 z" />
      <g
         id="g4395"
         transform="matrix(0.66666667,0,0,0.66666667,3.5002646e-4,350.78739)">
        <path
           id="path4397"
           d="m 18.90705,1018.6738 4.337934,-4.338"
           style="opacity:0.2;fill:none;stroke:#ffffff;stroke-width:1.5px;stroke-linecap:round" />
        <path
           id="path4399"
           d="m 21.076017,1025.1809 4.337934,-3.2536"
           style="opacity:0.2;fill:none;stroke:#ffffff;stroke-width:1.5px;stroke-linecap:round" />
        <path
           id="path4401"
           d="m 24.329467,1018.6738 4.337934,-4.338"
           style="opacity:0.2;fill:none;stroke:#ffffff;stroke-width:1.5px;stroke-linecap:round" />
        <path
           id="path4403"
           d="m 27.582918,1023.0118 4.337934,-4.338"
           style="opacity:0.2;fill:none;stroke:#ffffff;stroke-width:1.5px;stroke-linecap:round" />
      </g>
    </g>
    <rect
       y="1033.3622"
       x="5.5"
       height="14.5"
       width="5"
       id="rect4171"
       style="opacity:1;fill:url(#linearGradient4199);fill-opacity:1;stroke:none;stroke-width:1;stroke-linecap:square;stroke-linejoin:round;stroke-miterlimit:4;stroke-dasharray:none;stroke-opacity:1" />
    <rect
       transform="scale(-1,1)"
       style="opacity:1;fill:url(#linearGradient4201);fill-opacity:1;stroke:none;stroke-width:1;stroke-linecap:square;stroke-linejoin:round;stroke-miterlimit:4;stroke-dasharray:none;stroke-opacity:1"
       id="rect4175"
       width="5"
       height="14.5"
       x="-26.5"
       y="1033.3622" />
    <g
       id="g6079">
      <rect
         style="opacity:1;fill:url(#linearGradient4386);fill-opacity:1;stroke:url(#linearGradient4394);stroke-width:1;stroke-linecap:square;stroke-linejoin:round;stroke-miterlimit:4;stroke-dasharray:none;stroke-opacity:1"
         id="rect4378"
         width="11"
         height="14"
         x="10.499999"
         y="1033.8619" />
      <rect
         y="1034.3622"
         x="11"
         height="1"
         width="10"
         id="rect4434"
         style="opacity:0.3;fill:#ffffff;fill-opacity:1;stroke:none;stroke-width:1;stroke-linecap:square;stroke-linejoin:round;stroke-miterlimit:4;stroke-dasharray:none;stroke-opacity:1" />
      <rect
         style="opacity:0.1;fill:#000000;fill-opacity:1;stroke:none;stroke-width:1;stroke-linecap:square;stroke-linejoin:round;stroke-miterlimit:4;stroke-dasharray:none;stroke-opacity:1"
         id="rect4436"
         width="1"
         height="13.000244"
         x="11"
         y="1034.3622" />
      <rect
         y="1034.3622"
         x="20"
         height="13.000244"
         width="1"
         id="rect4460"
         style="opacity:0.1;fill:#000000;fill-opacity:1;stroke:none;stroke-width:1;stroke-linecap:square;stroke-linejoin:round;stroke-miterlimit:4;stroke-dasharray:none;stroke-opacity:1" />
      <rect
         style="opacity:0.6;fill:#000000;fill-opacity:1;stroke:none;stroke-width:0.99999976;stroke-linecap:square;stroke-linejoin:round;stroke-miterlimit:4;stroke-dasharray:none;stroke-opacity:1"
         id="rect4643"
         width="7"
         height="10"
         x="12.5"
         y="1035.8612" />
      <rect
         y="1035.8621"
         x="12.5"
         height="10.000001"
         width="7.0000005"
         id="rect4496"
         style="opacity:1;fill:none;fill-opacity:1;stroke:url(#linearGradient4882);stroke-width:0.99999923;stroke-linecap:square;stroke-linejoin:round;stroke-miterlimit:4;stroke-dasharray:none;stroke-opacity:1" />
      <rect
         y="1046.3622"
         x="12"
         height="1"
         width="8"
         id="rect4504"
         style="opacity:0.4;fill:#ffffff;fill-opacity:1;stroke:none;stroke-width:1;stroke-linecap:square;stroke-linejoin:round;stroke-miterlimit:4;stroke-dasharray:none;stroke-opacity:1"
         rx="1"
         ry="1" />
      <path
         style="opacity:1;fill:url(#linearGradient5409);fill-opacity:1;stroke:none;stroke-width:1;stroke-linecap:square;stroke-linejoin:round;stroke-miterlimit:4;stroke-dasharray:none;stroke-opacity:1"
         d="M 13 16 L 13 17 L 14 17 L 14 16 L 13 16 z M 14 17 L 14 18 L 15 18 L 15 17 L 14 17 z M 15 17 L 16 17 L 16 16 L 15 16 L 15 17 z M 16 17 L 16 18 L 17 18 L 17 17 L 16 17 z M 17 17 L 18 17 L 18 16 L 17 16 L 17 17 z M 18 17 L 18 18 L 19 18 L 19 17 L 18 17 z M 18 18 L 17 18 L 17 19 L 18 19 L 18 18 z M 18 19 L 18 20 L 19 20 L 19 19 L 18 19 z M 18 20 L 17 20 L 17 21 L 18 21 L 18 20 z M 18 21 L 18 22 L 19 22 L 19 21 L 18 21 z M 18 22 L 17 22 L 17 23 L 18 23 L 18 22 z M 18 23 L 18 24 L 19 24 L 19 23 L 18 23 z M 18 24 L 17 24 L 17 25 L 18 25 L 18 24 z M 17 24 L 17 23 L 16 23 L 16 24 L 17 24 z M 16 24 L 15 24 L 15 25 L 16 25 L 16 24 z M 15 24 L 15 23 L 14 23 L 14 24 L 15 24 z M 14 24 L 13 24 L 13 25 L 14 25 L 14 24 z M 14 23 L 14 22 L 13 22 L 13 23 L 14 23 z M 14 22 L 15 22 L 15 21 L 14 21 L 14 22 z M 14 21 L 14 20 L 13 20 L 13 21 L 14 21 z M 14 20 L 15 20 L 15 19 L 14 19 L 14 20 z M 14 19 L 14 18 L 13 18 L 13 19 L 14 19 z M 15 19 L 16 19 L 16 18 L 15 18 L 15 19 z M 16 19 L 16 20 L 17 20 L 17 19 L 16 19 z M 16 20 L 15 20 L 15 21 L 16 21 L 16 20 z M 16 21 L 16 22 L 17 22 L 17 21 L 16 21 z M 16 22 L 15 22 L 15 23 L 16 23 L 16 22 z "
         transform="translate(0,1020.3622)"
         id="rect5354" />
    </g>
    <path
       style="opacity:1;fill:url(#radialGradient6102);fill-opacity:1;stroke:none;stroke-width:1;stroke-linecap:square;stroke-linejoin:round;stroke-miterlimit:4;stroke-dasharray:none;stroke-opacity:1"
       d="m 16,1022.8622 a 10.5,10.5 0 0 0 -10.5,10.5 l 5,0 a 5.5,5.5 0 0 1 5.5,-5.5 5.5,5.5 0 0 1 5.5,5.5 l 5,0 a 10.5,10.5 0 0 0 -10.5,-10.5 z"
       id="path6100" />
    <path
       id="path6105"
       d="m 16,1022.8622 a 10.5,10.5 0 0 0 -10.5,10.5 l 0,14.5 5,0 0,-14.5 a 5.5,5.5 0 0 1 5.5,-5.5 5.5,5.5 0 0 1 5.5,5.5 l 0,14.5 5,0 0,-14.5 a 10.5,10.5 0 0 0 -10.5,-10.5 z"
       style="opacity:0.7;fill:none;fill-opacity:1;stroke:#850234;stroke-width:1;stroke-linecap:square;stroke-linejoin:round;stroke-miterlimit:4;stroke-dasharray:none;stroke-opacity:1" />
    <g
       id="g6139">
      <rect
         style="opacity:0.4;fill:url(#radialGradient3163);fill-opacity:1;stroke:none"
         id="rect2801"
         y="1047.3622"
         x="25.316"
         height="3.9999998"
         width="3.6842103" />
      <rect
         style="opacity:0.4;fill:url(#radialGradient3165);fill-opacity:1;stroke:none"
         id="rect3696"
         transform="scale(-1,-1)"
         y="-1051.3622"
         x="-6.6842103"
         height="3.9999998"
         width="3.6842103" />
      <rect
         style="opacity:0.4;fill:url(#linearGradient3167);fill-opacity:1;stroke:none"
         id="rect3700"
         y="1047.3622"
         x="6.684"
         height="4"
         width="18.632" />
    </g>
    <path
       id="rect5320"
       transform="translate(0,1020.3622)"
       d="M 16 3.5 A 9.5 9.5 0 0 0 6.5 13 L 6.5 26.5 L 9.5 26.5 L 9.5 13 A 6.5 6.5 0 0 1 16 6.5 A 6.5 6.5 0 0 1 22.5 13 L 22.5 26.5 L 25.5 26.5 L 25.5 13 A 9.5 9.5 0 0 0 16 3.5 z "
       style="opacity:0.5;fill:none;fill-opacity:1;stroke:url(#linearGradient6122);stroke-width:1;stroke-linecap:square;stroke-linejoin:round;stroke-miterlimit:4;stroke-dasharray:none;stroke-opacity:1" />
    <g
       id="g6192">
      <rect
         y="1033.8622"
         x="5.5"
         height="6"
         width="5"
         id="rect4179"
         style="opacity:1;fill:url(#linearGradient4231);fill-opacity:1;stroke:none;stroke-width:1;stroke-linecap:square;stroke-linejoin:round;stroke-miterlimit:4;stroke-dasharray:none;stroke-opacity:1" />
      <rect
         style="opacity:0.3;fill:none;fill-opacity:1;stroke:#000000;stroke-width:1;stroke-linecap:square;stroke-linejoin:round;stroke-miterlimit:4;stroke-dasharray:none;stroke-opacity:1"
         id="rect4233"
         width="5"
         height="6"
         x="5.5"
         y="1033.8622" />
      <rect
         y="1040.3622"
         x="5"
         height="1"
         width="6"
         id="rect4374"
         style="opacity:0.1;fill:#000000;fill-opacity:1;stroke:none;stroke-width:1;stroke-linecap:square;stroke-linejoin:round;stroke-miterlimit:4;stroke-dasharray:none;stroke-opacity:1" />
      <rect
         transform="matrix(0,1,-1,0,0,0)"
         style="opacity:0.3;fill:#000000;fill-opacity:1;stroke:none;stroke-width:1;stroke-linecap:square;stroke-linejoin:round;stroke-miterlimit:4;stroke-dasharray:none;stroke-opacity:1"
         id="rect4486"
         width="1"
         height="4"
         x="1035.3622"
         y="-10" />
      <rect
         y="-10"
         x="1037.3622"
         height="4"
         width="1"
         id="rect6132"
         style="opacity:0.3;fill:#000000;fill-opacity:1;stroke:none;stroke-width:1;stroke-linecap:square;stroke-linejoin:round;stroke-miterlimit:4;stroke-dasharray:none;stroke-opacity:1"
         transform="matrix(0,1,-1,0,0,0)" />
    </g>
    <g
       id="g6185">
      <rect
         transform="scale(-1,1)"
         style="opacity:1;fill:url(#linearGradient6077);fill-opacity:1;stroke:none;stroke-width:1;stroke-linecap:square;stroke-linejoin:round;stroke-miterlimit:4;stroke-dasharray:none;stroke-opacity:1"
         id="rect6069"
         width="5"
         height="6"
         x="-26.5"
         y="1033.8622" />
      <rect
         y="1033.8622"
         x="21.5"
         height="6"
         width="5"
         id="rect6071"
         style="opacity:0.3;fill:none;fill-opacity:1;stroke:#000000;stroke-width:1;stroke-linecap:square;stroke-linejoin:round;stroke-miterlimit:4;stroke-dasharray:none;stroke-opacity:1" />
      <rect
         style="opacity:0.1;fill:#000000;fill-opacity:1;stroke:none;stroke-width:1;stroke-linecap:square;stroke-linejoin:round;stroke-miterlimit:4;stroke-dasharray:none;stroke-opacity:1"
         id="rect6073"
         width="6"
         height="1"
         x="21"
         y="1040.3622" />
      <rect
         y="-26"
         x="1035.3622"
         height="4"
         width="1"
         id="rect6075"
         style="opacity:0.3;fill:#000000;fill-opacity:1;stroke:none;stroke-width:1;stroke-linecap:square;stroke-linejoin:round;stroke-miterlimit:4;stroke-dasharray:none;stroke-opacity:1"
         transform="matrix(0,1,-1,0,0,0)" />
      <rect
         transform="matrix(0,1,-1,0,0,0)"
         style="opacity:0.3;fill:#000000;fill-opacity:1;stroke:none;stroke-width:1;stroke-linecap:square;stroke-linejoin:round;stroke-miterlimit:4;stroke-dasharray:none;stroke-opacity:1"
         id="rect6134"
         width="1"
         height="4"
         x="1037.3622"
         y="-26" />
    </g>
    <g
       id="g6089">
      <rect
         y="1047.8622"
         x="4.5"
         height="2"
         width="23"
         id="rect4177"
         style="opacity:1;fill:url(#linearGradient4237);fill-opacity:1;stroke:none;stroke-width:1;stroke-linecap:square;stroke-linejoin:round;stroke-miterlimit:4;stroke-dasharray:none;stroke-opacity:1" />
      <rect
         style="opacity:0.3;fill:none;fill-opacity:1;stroke:#000000;stroke-width:1;stroke-linecap:square;stroke-linejoin:round;stroke-miterlimit:4;stroke-dasharray:none;stroke-opacity:1"
         id="rect4239"
         width="23"
         height="2"
         x="4.5"
         y="1047.8622" />
      <rect
         y="-27"
         x="1046.3622"
         height="22"
         width="1"
         id="rect4462"
         style="opacity:0.1;fill:#000000;fill-opacity:1;stroke:none;stroke-width:1;stroke-linecap:square;stroke-linejoin:round;stroke-miterlimit:4;stroke-dasharray:none;stroke-opacity:1"
         transform="matrix(0,1,-1,0,0,0)" />
    </g>
    <path
       id="path6148"
       transform="translate(0,1020.3622)"
       d="M 16.076172 2.5 A 10.5 10.5 0 0 0 11.982422 3.2988281 L 13.910156 7.9550781 A 5.5 6 0 0 1 16 7.5 A 5.5 6 0 0 1 18.089844 7.9511719 L 20.017578 3.2988281 A 10.5 10.5 0 0 0 16.076172 2.5 z "
       style="opacity:1;fill:url(#linearGradient6153);fill-opacity:1;stroke:none;stroke-width:0.99999994;stroke-linecap:square;stroke-linejoin:round;stroke-miterlimit:4;stroke-dasharray:none;stroke-opacity:1" />
    <path
       style="opacity:0.3;fill:none;fill-opacity:1;stroke:#000000;stroke-width:0.99999994;stroke-linecap:square;stroke-linejoin:round;stroke-miterlimit:4;stroke-dasharray:none;stroke-opacity:1"
       d="M 16.076172 2.5 A 10.5 10.5 0 0 0 11.982422 3.2988281 L 13.910156 7.9550781 A 5.5 6 0 0 1 16 7.5 A 5.5 6 0 0 1 18.089844 7.9511719 L 20.017578 3.2988281 A 10.5 10.5 0 0 0 16.076172 2.5 z "
       transform="translate(0,1020.3622)"
       id="path6155" />
    <path
       id="path6146"
       transform="translate(0,1020.3622)"
       d="M 16.445312 3.5097656 A 9.5 9.5 0 0 0 13.621094 3.8027344 L 14.373047 6.7109375 A 6.5 6.5 0 0 1 16 6.5 A 6.5 6.5 0 0 1 17.625 6.7148438 L 18.378906 3.8027344 A 9.5 9.5 0 0 0 16.445312 3.5097656 z "
       style="opacity:0.5;fill:none;fill-opacity:1;stroke:url(#linearGradient6163);stroke-width:0.99999994;stroke-linecap:square;stroke-linejoin:round;stroke-miterlimit:4;stroke-dasharray:none;stroke-opacity:1" />
  </g>
</svg>
