<?xml version="1.0" encoding="UTF-8" standalone="no"?>
<svg
   xmlns:dc="http://purl.org/dc/elements/1.1/"
   xmlns:cc="http://creativecommons.org/ns#"
   xmlns:rdf="http://www.w3.org/1999/02/22-rdf-syntax-ns#"
   xmlns:svg="http://www.w3.org/2000/svg"
   xmlns="http://www.w3.org/2000/svg"
   xmlns:sodipodi="http://sodipodi.sourceforge.net/DTD/sodipodi-0.dtd"
   xmlns:inkscape="http://www.inkscape.org/namespaces/inkscape"
   width="48"
   height="48"
   viewBox="0 0 48 48"
   version="1.1"
   id="svg2"
   inkscape:version="0.91 r13725"
   sodipodi:docname="folder-open.svg">
  <metadata
     id="metadata86">
    <rdf:RDF>
      <cc:Work
         rdf:about="">
        <dc:format>image/svg+xml</dc:format>
        <dc:type
           rdf:resource="http://purl.org/dc/dcmitype/StillImage" />
        <dc:title>folder-open</dc:title>
      </cc:Work>
    </rdf:RDF>
  </metadata>
  <sodipodi:namedview
     pagecolor="#ffffff"
     bordercolor="#666666"
     borderopacity="1"
     objecttolerance="10"
     gridtolerance="10"
     guidetolerance="10"
     inkscape:pageopacity="0"
     inkscape:pageshadow="2"
     inkscape:window-width="928"
     inkscape:window-height="497"
     id="namedview84"
     showgrid="false"
     inkscape:zoom="10"
     inkscape:cx="21.608051"
     inkscape:cy="15.5"
     inkscape:window-x="0"
     inkscape:window-y="0"
     inkscape:window-maximized="0"
     inkscape:current-layer="svg2">
    <inkscape:grid
       type="xygrid"
       id="grid4214" />
  </sodipodi:namedview>
  <!-- Generator: Sketch 41 (35326) - http://www.bohemiancoding.com/sketch -->
  <title
     id="title4">folder-open</title>
  <desc
     id="desc6">Created with Sketch.</desc>
  <defs
     id="defs8">
    <linearGradient
       x1="41.033173"
       y1="61.617596"
       x2="41.033173"
       y2="-9.4702921"
       id="linearGradient-1"
       gradientTransform="scale(1.6087993,0.62158157)"
       gradientUnits="userSpaceOnUse">
      <stop
         stop-color="#000000"
         stop-opacity="0.32173914"
         offset="0%"
         id="stop11" />
      <stop
         stop-color="#000000"
         stop-opacity="0.27826086"
         offset="100%"
         id="stop13" />
    </linearGradient>
    <linearGradient
       x1="7.5762472"
       y1="16.815899"
       x2="7.5762472"
       y2="21.754229"
       id="linearGradient-2"
       gradientTransform="scale(1.6461098,0.6074929)"
       gradientUnits="userSpaceOnUse">
      <stop
         stop-color="#F9F9F9"
         offset="0%"
         id="stop16" />
      <stop
         stop-color="#D8D8D8"
         offset="100%"
         id="stop18" />
    </linearGradient>
    <linearGradient
       x1="13.22902"
       y1="2.2967653"
       x2="13.22902"
       y2="59.005367"
       id="linearGradient-3"
       gradientTransform="scale(1.67332,0.59761431)"
       gradientUnits="userSpaceOnUse">
      <stop
         stop-color="#FFFFFF"
         offset="0%"
         id="stop21" />
      <stop
         stop-color="#FFFFFF"
         stop-opacity="0.23529412"
         offset="7.395859%"
         id="stop23" />
      <stop
         stop-color="#FFFFFF"
         stop-opacity="0.15686275"
         offset="99.001008%"
         id="stop25" />
      <stop
         stop-color="#FFFFFF"
         stop-opacity="0.39215687"
         offset="100%"
         id="stop27" />
    </linearGradient>
    <linearGradient
       x1="7.6554499"
       y1="83.411591"
       x2="7.6554499"
       y2="98.577347"
       id="linearGradient-4"
       gradientTransform="scale(2.527625,0.39562831)"
       gradientUnits="userSpaceOnUse">
      <stop
         stop-color="#000000"
         stop-opacity="0"
         offset="0%"
         id="stop30" />
      <stop
         stop-color="#000000"
         offset="50%"
         id="stop32" />
      <stop
         stop-color="#000000"
         stop-opacity="0"
         offset="100%"
         id="stop34" />
    </linearGradient>
    <radialGradient
       cx="54.121887"
       cy="28.747265"
       fx="54.121887"
       fy="28.747265"
       r="4.6781745"
       id="radialGradient-5"
       gradientTransform="matrix(-9.750391e-8,0.64882315,-0.79931652,-1.2011977e-7,66.238827,0.84916134)"
       gradientUnits="userSpaceOnUse">
      <stop
         stop-color="#000000"
         offset="0%"
         id="stop37" />
      <stop
         stop-color="#000000"
         stop-opacity="0"
         offset="100%"
         id="stop39" />
    </radialGradient>
    <radialGradient
       cx="5.9292555"
       cy="28.747265"
       fx="5.9292555"
       fy="28.747265"
       r="4.678174"
       id="radialGradient-6"
       gradientTransform="matrix(-7.2145077e-8,-0.63372822,0.79932177,-9.0996626e-8,-18.238947,39.72223)"
       gradientUnits="userSpaceOnUse">
      <stop
         stop-color="#000000"
         offset="0%"
         id="stop42" />
      <stop
         stop-color="#000000"
         stop-opacity="0"
         offset="100%"
         id="stop44" />
    </radialGradient>
    <linearGradient
       x1="16.871092"
       y1="52.296848"
       x2="16.871092"
       y2="19.254786"
       id="linearGradient-7"
       gradientTransform="scale(1.4283222,0.70012212)"
       gradientUnits="userSpaceOnUse">
      <stop
         stop-color="#FF66A1"
         offset="0%"
         id="stop47" />
      <stop
         stop-color="#FF8CB8"
         offset="100%"
         id="stop49" />
    </linearGradient>
    <linearGradient
       x1="16.155237"
       y1="58.51656"
       x2="16.05353"
       y2="43.92662"
       id="linearGradient-8"
       gradientTransform="scale(1.4105099,0.70896349)"
       gradientUnits="userSpaceOnUse">
      <stop
         stop-color="#0A0A0A"
         stop-opacity="0.498"
         offset="0%"
         id="stop52" />
      <stop
         stop-color="#0A0A0A"
         stop-opacity="0"
         offset="100%"
         id="stop54" />
    </linearGradient>
    <linearGradient
       x1="14.818269"
       y1="20.919098"
       x2="14.818269"
       y2="51.379299"
       id="linearGradient-9"
       gradientTransform="scale(1.4485068,0.69036613)"
       gradientUnits="userSpaceOnUse">
      <stop
         stop-color="#FFFFFF"
         offset="0%"
         id="stop57" />
      <stop
         stop-color="#FFFFFF"
         stop-opacity="0.23529412"
         offset="1.022492%"
         id="stop59" />
      <stop
         stop-color="#FFFFFF"
         stop-opacity="0.15686275"
         offset="99.001008%"
         id="stop61" />
      <stop
         stop-color="#FFFFFF"
         stop-opacity="0.39215687"
         offset="100%"
         id="stop63" />
    </linearGradient>
  </defs>
  <g
     id="Page-1"
     style="fill:none;fill-rule:evenodd;stroke:none;stroke-width:1"
     transform="translate(0,8)">
    <g
       id="dribbble-music-player"
       transform="translate(-108,-408)">
      <g
         id="window--welcome"
         transform="translate(59,59)">
        <g
           id="welcome"
           transform="translate(49,197)">
          <g
             id="add-from-folder"
             transform="translate(0,144)">
            <g
               id="folder-open">
              <g
                 id="svg21462">
                <rect
                   id="Rectangle-3"
                   x="0"
                   y="0"
                   width="48"
                   height="48"
                   style="fill:#ffffff;fill-opacity:0" />
                <g
                   id="layer1"
                   transform="translate(0,8)">
                  <path
                     d="m 5.5000133,0.4999877 c -0.554,0 -1,0.446 -1,1 l 0,2.0000003 -1,0 c -0.554,0 -1,0.446 -1,1 l 0,12 42.9999997,0 0,-12 c 0,-0.554 -0.446,-1 -1,-1 l -23,0 0,-2.0000003 c 0,-0.554 -0.446,-1 -1,-1 l -14.9999997,0 z"
                     id="rect4251-0-0-9-7-3-3"
                     inkscape:connector-curvature="0"
                     style="opacity:0.8;stroke:url(#linearGradient-1)" />
                  <path
                     d="m 5.5000133,0.9999877 c -0.277,0 -0.5,0.223 -0.5,0.5 l 0,2.5000003 -1.5,0 c -0.277,0 -0.5,0.223 -0.5,0.5 l 0,12 41.9999997,0 0,-12 c 0,-0.277 -0.223,-0.5 -0.5,-0.5 l -23.5,0 0,-2.5000003 c 0,-0.277 -0.223,-0.5 -0.5,-0.5 l -14.9999997,0 z"
                     id="rect4251-4-8-2-72-8"
                     inkscape:connector-curvature="0"
                     style="fill:url(#linearGradient-2)" />
                  <polygon
                     id="rect4251-9-9-8-1-7-6"
                     points="20.500013,1.4999877 5.5000133,1.4999877 5.5000133,4.499988 3.5000133,4.499988 3.5000133,15.499988 44.500013,15.499988 44.500013,4.499988 20.500013,4.499988 "
                     style="stroke:url(#linearGradient-3)" />
                  <rect
                     id="rect4173-6-1-6-8-3"
                     x="4.833375"
                     y="33"
                     width="38.333332"
                     height="6.0000005"
                     style="opacity:0.3;fill:url(#linearGradient-4)" />
                  <path
                     d="m 43.166713,33.000198 0,5.99967 c 1.5856,0.0113 3.8333,-1.34422 3.8333,-3.00022 0,-1.656 -1.7695,-2.99945 -3.8333,-2.99945 z"
                     id="path5058-7-5-8-1-4"
                     style="opacity:0.3;fill:url(#radialGradient-5)"
                     inkscape:connector-curvature="0" />
                  <path
                     d="m 4.8333133,33.000198 0,5.99967 c -1.5856,0.0113 -3.8333,-1.34422 -3.8333,-3.00022 0,-1.656 1.7695,-2.99945 3.8333,-2.99945 z"
                     id="path5018-8-7-1-0-4"
                     style="opacity:0.3;fill:url(#radialGradient-6)"
                     inkscape:connector-curvature="0" />
                  <path
                     d="m 1.1627133,13.499988 c -1.07270001,0.10099 -0.49950001,1.27922 -0.58500001,1.86617 0.3005,1.21697 1.97640001,19.43387 2.17930001,20.74656 0.3418,0.78845 1.5944,0.38468 2.3881,0.48477 l 39.5805997,0 c 1.0894,-0.0871 0.6365,-1.14932 0.7897,-1.75724 0.062,-0.88455 1.7066,-14.73976 2.1793,-20.74656 -0.2512,-0.77914 -1.4877,-0.5937 -2.263,-0.5937 l -44.2689997,0 z"
                     id="path7314-3-7"
                     inkscape:connector-curvature="0"
                     style="fill:url(#linearGradient-7)" />
                  <path
                     d="m 2.0582133,13.871588 43.8964997,3.2e-4 c 0.6342,0 1.0452,0.35535 1.0452,0.79713 l -1.0324,21.5475 c 0.015,0.55898 -0.2091,0.78061 -0.9459,0.76889 l -41.7807997,-0.0141 c -0.6341,0 -1.2736,-0.32989 -1.2736,-0.77166 l -0.9541,-21.53068 c 0,-0.44178 0.411,-0.79743 1.0451,-0.79743 l 0,3e-5 z"
                     id="path6127-7-0-2-7-0"
                     inkscape:connector-curvature="0"
                     style="opacity:0.4;fill:url(#linearGradient-8)" />
                  <path
                     d="m 1.601459,14.656238 c 0.02173,0.102759 -0.01119,0.259429 0,0.4375 l 0.03125,0 c 0.08755,0.354594 0.111073,0.716468 0.1875,1.34375 0.07643,0.627282 0.179267,1.422066 0.28125,2.375 0.203965,1.905868 0.445415,4.344567 0.6875,6.78125 0.242085,2.436683 0.465329,4.871394 0.65625,6.78125 0.165726,1.657825 0.260654,2.659047 0.3125,3.09375 0.282286,0.0038 0.772765,-0.04348 1.34375,0 l 0,-0.03125 39.1875,0 c -0.0175,-0.151887 -0.0242,-0.333972 0.0312,-0.6875 l -0.0312,0 c 0.002,-0.02462 0.0288,-0.157775 0.0312,-0.1875 0.0344,-0.41345 0.12159,-1.208643 0.28125,-2.625 0.17113,-1.518186 0.41643,-3.526172 0.65625,-5.6875 0.45396,-4.091183 0.90598,-8.589135 1.15625,-11.59375 -0.26313,-0.01293 -0.61515,0 -1.03125,0 l -43.78125,0 5e-5,0 z"
                     id="path22379-0-6"
                     inkscape:connector-curvature="0"
                     style="opacity:0.5;stroke:url(#linearGradient-9);stroke-width:1.00000012" />
                  <path
                     d="m 1.1627133,13.499988 c -1.07270001,0.10099 -0.49950001,1.27922 -0.58500001,1.86617 0.3005,1.21697 1.97640001,19.43387 2.17930001,20.74656 0.3418,0.78845 1.5944,0.38468 2.3881,0.48477 l 39.5805997,0 c 1.0894,-0.0871 0.6365,-1.14932 0.7897,-1.75724 0.062,-0.88455 1.7066,-14.73976 2.1793,-20.74656 -0.2512,-0.77914 -1.4877,-0.5937 -2.263,-0.5937 l -44.2689997,0 z"
                     id="path7314-3-7-4"
                     inkscape:connector-curvature="0"
                     style="opacity:0.3;stroke:#000000" />
                </g>
              </g>
            </g>
          </g>
        </g>
      </g>
    </g>
  </g>
</svg>
