<?xml version="1.0" encoding="UTF-8" standalone="no"?>
<svg
   xmlns:dc="http://purl.org/dc/elements/1.1/"
   xmlns:cc="http://creativecommons.org/ns#"
   xmlns:rdf="http://www.w3.org/1999/02/22-rdf-syntax-ns#"
   xmlns:svg="http://www.w3.org/2000/svg"
   xmlns="http://www.w3.org/2000/svg"
   xmlns:xlink="http://www.w3.org/1999/xlink"
   xmlns:sodipodi="http://sodipodi.sourceforge.net/DTD/sodipodi-0.dtd"
   xmlns:inkscape="http://www.inkscape.org/namespaces/inkscape"
   version="1.1"
   id="svg2"
   viewBox="0 0 64 64.000002"
   height="64"
   width="64"
   inkscape:version="0.91 r13725"
   sodipodi:docname="dribbble.svg">
  <sodipodi:namedview
     pagecolor="#ffffff"
     bordercolor="#666666"
     borderopacity="1"
     objecttolerance="10"
     gridtolerance="10"
     guidetolerance="10"
     inkscape:pageopacity="0"
     inkscape:pageshadow="2"
     inkscape:window-width="1129"
     inkscape:window-height="783"
     id="namedview129"
     showgrid="false"
     inkscape:zoom="1"
     inkscape:cx="27.254237"
     inkscape:cy="32"
     inkscape:window-x="0"
     inkscape:window-y="30"
     inkscape:window-maximized="0"
     inkscape:current-layer="layer1">
    <inkscape:grid
       type="xygrid"
       id="grid4257" />
  </sodipodi:namedview>
  <defs
     id="defs4">
    <linearGradient
       inkscape:collect="always"
       id="linearGradient4259">
      <stop
         style="stop-color:#000000;stop-opacity:1;"
         offset="0"
         id="stop4261" />
      <stop
         style="stop-color:#000000;stop-opacity:0;"
         offset="1"
         id="stop4263" />
    </linearGradient>
    <linearGradient
       id="linearGradient4340-3-6-7">
      <stop
         id="stop4892"
         offset="0"
         style="stop-color:#ffffff;stop-opacity:1;" />
      <stop
         style="stop-color:#ffffff;stop-opacity:0.23529412"
         offset="0.14285715"
         id="stop4894" />
      <stop
         id="stop4896"
         offset="0.85714287"
         style="stop-color:#ffffff;stop-opacity:0.15686275" />
      <stop
         id="stop4898"
         offset="1"
         style="stop-color:#ffffff;stop-opacity:0.39215687" />
    </linearGradient>
    <linearGradient
       id="linearGradient4864">
      <stop
         style="stop-color:#ffffff;stop-opacity:1;"
         offset="0"
         id="stop4866" />
      <stop
         id="stop4868"
         offset="0.41666666"
         style="stop-color:#ffffff;stop-opacity:0.23529412" />
      <stop
         style="stop-color:#ffffff;stop-opacity:0.15686275"
         offset="0.97916669"
         id="stop4870" />
      <stop
         style="stop-color:#ffffff;stop-opacity:0.39215687"
         offset="1"
         id="stop4872" />
    </linearGradient>
    <linearGradient
       id="linearGradient4340-3-6">
      <stop
         style="stop-color:#ffffff;stop-opacity:1;"
         offset="0"
         id="stop4764" />
      <stop
         id="stop4766"
         offset="0.11111304"
         style="stop-color:#ffffff;stop-opacity:0.23529412" />
      <stop
         style="stop-color:#ffffff;stop-opacity:0.15686275"
         offset="0.8888908"
         id="stop4768" />
      <stop
         style="stop-color:#ffffff;stop-opacity:0.39215687"
         offset="1"
         id="stop4770" />
    </linearGradient>
    <linearGradient
       id="linearGradient4340-3">
      <stop
         id="stop4752"
         offset="0"
         style="stop-color:#ffffff;stop-opacity:1;" />
      <stop
         style="stop-color:#ffffff;stop-opacity:0.23529412"
         offset="0.25"
         id="stop4754" />
      <stop
         id="stop4756"
         offset="0.75000435"
         style="stop-color:#ffffff;stop-opacity:0.15686275" />
      <stop
         id="stop4758"
         offset="1"
         style="stop-color:#ffffff;stop-opacity:0.39215687" />
    </linearGradient>
    <linearGradient
       id="linearGradient4405">
      <stop
         id="stop4407"
         offset="0"
         style="stop-color:#ffffff;stop-opacity:1;" />
      <stop
         id="stop4409"
         offset="1"
         style="stop-color:#ffffff;stop-opacity:0;" />
    </linearGradient>
    <linearGradient
       id="linearGradient4388">
      <stop
         id="stop4390"
         offset="0"
         style="stop-color:#492714;stop-opacity:0.62352943" />
      <stop
         id="stop4392"
         offset="1"
         style="stop-color:#6a3f1f;stop-opacity:0.76862746" />
    </linearGradient>
    <linearGradient
       id="linearGradient4380">
      <stop
         id="stop4382"
         offset="0"
         style="stop-color:#d28e5b;stop-opacity:1;" />
      <stop
         id="stop4384"
         offset="1"
         style="stop-color:#ae6a37;stop-opacity:1" />
    </linearGradient>
    <linearGradient
       id="linearGradient4366">
      <stop
         id="stop4368"
         offset="0"
         style="stop-color:#6db0de;stop-opacity:1;" />
      <stop
         id="stop4370"
         offset="1"
         style="stop-color:#a4cae4;stop-opacity:1" />
    </linearGradient>
    <linearGradient
       id="linearGradient4193-3">
      <stop
         style="stop-color:#d12e6c;stop-opacity:1"
         offset="0"
         id="stop4278" />
      <stop
         id="stop4282"
         offset="0.55000001"
         style="stop-color:#d12e6c;stop-opacity:1" />
      <stop
         style="stop-color:#ff66a1;stop-opacity:1"
         offset="1"
         id="stop4280" />
    </linearGradient>
    <linearGradient
       id="linearGradient4225">
      <stop
         id="stop4227"
         offset="0"
         style="stop-color:#e9e9e9;stop-opacity:1;" />
      <stop
         id="stop4229"
         offset="1"
         style="stop-color:#bfbfbf;stop-opacity:1" />
    </linearGradient>
    <linearGradient
       id="linearGradient4193">
      <stop
         id="stop4195"
         offset="0"
         style="stop-color:#ff66a1;stop-opacity:1" />
      <stop
         id="stop4197"
         offset="1"
         style="stop-color:#d12e6c;stop-opacity:1" />
    </linearGradient>
    <linearGradient
       id="linearGradient3688-166-749">
      <stop
         id="stop2883"
         style="stop-color:#181818;stop-opacity:1"
         offset="0" />
      <stop
         id="stop2885"
         style="stop-color:#181818;stop-opacity:0"
         offset="1" />
    </linearGradient>
    <linearGradient
       id="linearGradient3702-501-757">
      <stop
         id="stop2895"
         style="stop-color:#181818;stop-opacity:0"
         offset="0" />
      <stop
         id="stop2897"
         style="stop-color:#181818;stop-opacity:1"
         offset="0.5" />
      <stop
         id="stop2899"
         style="stop-color:#181818;stop-opacity:0"
         offset="1" />
    </linearGradient>
    <linearGradient
       gradientTransform="matrix(1.25,0,0,1.3409073,0.50000355,-358.8713)"
       gradientUnits="userSpaceOnUse"
       y2="1034.3621"
       x2="16"
       y1="1034.3621"
       x1="8"
       id="linearGradient4199"
       xlink:href="#linearGradient4193" />
    <linearGradient
       gradientTransform="matrix(1.3055556,0,0,1.25,-3.3333333,-263.84022)"
       gradientUnits="userSpaceOnUse"
       y2="1049.3622"
       x2="24"
       y1="1045.3622"
       x1="24"
       id="linearGradient4237"
       xlink:href="#linearGradient4225" />
    <linearGradient
       gradientTransform="matrix(1.3529411,0,0,1.4117646,-0.47058873,-447.88403)"
       gradientUnits="userSpaceOnUse"
       y2="1023.3622"
       x2="24"
       y1="1014.3622"
       x1="24"
       id="linearGradient4372"
       xlink:href="#linearGradient4366" />
    <linearGradient
       gradientTransform="matrix(1.3529412,0,0,1.3181819,11.529409,-342.77419)"
       gradientUnits="userSpaceOnUse"
       y2="1046.3622"
       x2="16"
       y1="1023.3622"
       x1="16"
       id="linearGradient4386"
       xlink:href="#linearGradient4380" />
    <linearGradient
       gradientTransform="matrix(1.3529412,0,0,1.3181819,11.529409,-342.77419)"
       gradientUnits="userSpaceOnUse"
       y2="1046.3622"
       x2="32"
       y1="1023.3622"
       x1="32"
       id="linearGradient4394"
       xlink:href="#linearGradient4388" />
    <linearGradient
       gradientTransform="matrix(1.3636366,0,0,1.3125003,11.272724,-336.89461)"
       gradientUnits="userSpaceOnUse"
       y2="1043.3622"
       x2="24"
       y1="1026.3622"
       x1="24"
       id="linearGradient4882"
       xlink:href="#linearGradient4388" />
    <linearGradient
       y2="1028.3622"
       x2="16"
       y1="1028.3622"
       x1="6"
       gradientTransform="matrix(1.1,0,0,1.2,-61.1,-220.17248)"
       gradientUnits="userSpaceOnUse"
       id="linearGradient6077"
       xlink:href="#linearGradient4225" />
    <radialGradient
       gradientTransform="matrix(3.1638751,0,0,0.99999998,34.296754,1003.8622)"
       gradientUnits="userSpaceOnUse"
       xlink:href="#linearGradient3688-166-749"
       id="radialGradient3337-2-2"
       fy="43.5"
       fx="4.9929786"
       r="2.5"
       cy="43.5"
       cx="4.9929786" />
    <radialGradient
       gradientTransform="matrix(3.1638751,0,0,0.99999998,-29.702995,-1090.8622)"
       gradientUnits="userSpaceOnUse"
       xlink:href="#linearGradient3688-166-749"
       id="radialGradient3339-1-4"
       fy="43.5"
       fx="4.9929786"
       r="2.5"
       cy="43.5"
       cx="4.9929786" />
    <linearGradient
       gradientTransform="matrix(1.29325,0,0,0.7142857,0.9625003,1016.2908)"
       gradientUnits="userSpaceOnUse"
       xlink:href="#linearGradient3702-501-757"
       id="linearGradient13984"
       y2="39.999443"
       x2="25.058096"
       y1="47.027729"
       x1="25.058096" />
    <linearGradient
       gradientUnits="userSpaceOnUse"
       y2="1046.3622"
       x2="28"
       y1="1044.3622"
       x1="28"
       id="linearGradient4367"
       xlink:href="#linearGradient4340-3" />
    <linearGradient
       gradientUnits="userSpaceOnUse"
       y2="1028.3622"
       x2="44"
       y1="1033.3622"
       x1="44"
       id="linearGradient4411"
       xlink:href="#linearGradient4405" />
    <linearGradient
       gradientUnits="userSpaceOnUse"
       y2="43"
       x2="44"
       y1="23"
       x1="44"
       id="linearGradient4711"
       xlink:href="#linearGradient4225" />
    <linearGradient
       gradientUnits="userSpaceOnUse"
       y2="1018.3622"
       x2="49"
       y1="1009.3622"
       x1="49"
       id="linearGradient4748"
       xlink:href="#linearGradient4340-3-6" />
    <linearGradient
       y2="1028.3622"
       x2="16"
       y1="1028.3622"
       x1="6"
       gradientTransform="matrix(1.1,0,0,1.2,2.9000038,-220.17248)"
       gradientUnits="userSpaceOnUse"
       id="linearGradient4792"
       xlink:href="#linearGradient4225" />
    <linearGradient
       gradientTransform="translate(-34,0)"
       y2="1018.3622"
       x2="49"
       y1="1009.3622"
       x1="49"
       gradientUnits="userSpaceOnUse"
       id="linearGradient4794"
       xlink:href="#linearGradient4340-3-6" />
    <linearGradient
       y2="1034.3621"
       x2="16"
       y1="1034.3621"
       x1="8"
       gradientTransform="matrix(1.25,0,0,1.3409073,-63.499996,-358.8713)"
       gradientUnits="userSpaceOnUse"
       id="linearGradient4818"
       xlink:href="#linearGradient4193" />
    <radialGradient
       gradientUnits="userSpaceOnUse"
       gradientTransform="matrix(1,0,0,0.97674419,0,-9.9186047)"
       r="21.5"
       fy="35.75"
       fx="32"
       cy="35.75"
       cx="32"
       id="radialGradient4837"
       xlink:href="#linearGradient4193-3" />
    <linearGradient
       gradientUnits="userSpaceOnUse"
       y2="53"
       x2="32"
       y1="5"
       x1="32"
       id="linearGradient4862"
       xlink:href="#linearGradient4864" />
    <linearGradient
       gradientUnits="userSpaceOnUse"
       y2="14"
       x2="32"
       y1="2"
       x1="32"
       id="linearGradient4883"
       xlink:href="#linearGradient4225" />
    <linearGradient
       gradientUnits="userSpaceOnUse"
       y2="12"
       x2="32"
       y1="5"
       x1="32"
       id="linearGradient4888"
       xlink:href="#linearGradient4340-3-6-7" />
    <linearGradient
       inkscape:collect="always"
       xlink:href="#linearGradient4259"
       id="linearGradient4265"
       x1="16"
       y1="1020.3622"
       x2="16"
       y2="1022.3622"
       gradientUnits="userSpaceOnUse" />
    <linearGradient
       inkscape:collect="always"
       xlink:href="#linearGradient4259"
       id="linearGradient4267"
       x1="48"
       y1="1020.3622"
       x2="48"
       y2="1022.3622"
       gradientUnits="userSpaceOnUse" />
    <linearGradient
       inkscape:collect="always"
       xlink:href="#linearGradient4259"
       id="linearGradient4269"
       x1="55"
       y1="1021.3622"
       x2="53"
       y2="1021.3622"
       gradientUnits="userSpaceOnUse" />
    <linearGradient
       inkscape:collect="always"
       xlink:href="#linearGradient4259"
       id="linearGradient4271"
       x1="33"
       y1="1021.3624"
       x2="35"
       y2="1021.3624"
       gradientUnits="userSpaceOnUse" />
    <linearGradient
       inkscape:collect="always"
       xlink:href="#linearGradient4259"
       id="linearGradient4273"
       x1="1042.3622"
       y1="-28"
       x2="1040.3622"
       y2="-28"
       gradientUnits="userSpaceOnUse" />
  </defs>
  <metadata
     id="metadata7">
    <rdf:RDF>
      <cc:Work
         rdf:about="">
        <dc:format>image/svg+xml</dc:format>
        <dc:type
           rdf:resource="http://purl.org/dc/dcmitype/StillImage" />
        <dc:title />
      </cc:Work>
    </rdf:RDF>
  </metadata>
  <g
     transform="translate(0,-988.3622)"
     id="layer1">
    <g
       transform="translate(0,17)"
       id="g4731">
      <path
         id="path4238"
         transform="translate(0,971.3622)"
         d="M 32 19.5 A 5.5 5.5 0 0 0 26.5 25 A 5.5 5.5 0 0 0 32 30.5 A 5.5 5.5 0 0 0 37.5 25 A 5.5 5.5 0 0 0 32 19.5 z M 32 23.5 A 1.5 1.5 0 0 1 33.5 25 A 1.5 1.5 0 0 1 32 26.5 A 1.5 1.5 0 0 1 30.5 25 A 1.5 1.5 0 0 1 32 23.5 z "
         style="opacity:1;fill:#1a1a1a;fill-opacity:1;stroke:#000000;stroke-width:1;stroke-linecap:square;stroke-linejoin:round;stroke-miterlimit:4;stroke-dasharray:none;stroke-opacity:1" />
      <path
         style="opacity:0.8;fill:url(#linearGradient4372);fill-opacity:1;stroke:none;stroke-width:1;stroke-linecap:square;stroke-linejoin:round;stroke-miterlimit:4;stroke-dasharray:none;stroke-opacity:1"
         id="path4362"
         d="m 20.5,996.86243 a 11.5,12 0 0 1 11.5,-12 11.5,12 0 0 1 11.5,12 l -11.5,0 z" />
      <path
         id="path4364"
         style="opacity:1;fill:none;fill-opacity:1;stroke:#6490b1;stroke-width:1;stroke-linecap:square;stroke-linejoin:round;stroke-miterlimit:4;stroke-dasharray:none;stroke-opacity:1"
         d="m 20.5,996.86237 a 11.5,12 0 0 1 11.5,-12 11.5,12 0 0 1 11.5,12 l -11.5,0 z" />
      <g
         id="g4395"
         transform="matrix(1.4108769,0,0,1.4263268,-1.0704704,-464.00142)">
        <path
           id="path4397"
           d="m 18.90705,1018.6738 4.337934,-4.338"
           style="opacity:0.2;fill:none;stroke:#ffffff;stroke-width:0.70492989px;stroke-linecap:round" />
        <path
           id="path4399"
           d="m 21.076017,1025.1809 4.337934,-3.2536"
           style="opacity:0.2;fill:none;stroke:#ffffff;stroke-width:0.70492989px;stroke-linecap:round" />
        <path
           id="path4401"
           d="m 24.329467,1018.6738 4.337934,-4.338"
           style="opacity:0.2;fill:none;stroke:#ffffff;stroke-width:0.70492989px;stroke-linecap:round" />
        <path
           id="path4403"
           d="m 27.582918,1023.0118 4.337934,-4.338"
           style="opacity:0.2;fill:none;stroke:#ffffff;stroke-width:0.70492989px;stroke-linecap:round" />
      </g>
    </g>
    <g
       transform="translate(-12,7.0000174)"
       id="g4713">
      <rect
         style="opacity:1;fill:url(#linearGradient4386);fill-opacity:1;stroke:url(#linearGradient4394);stroke-width:1;stroke-linecap:square;stroke-linejoin:round;stroke-miterlimit:4;stroke-dasharray:none;stroke-opacity:1"
         id="rect4378"
         width="23"
         height="29"
         x="32.5"
         y="1006.8622" />
      <rect
         y="1007.3622"
         x="33"
         height="1"
         width="22"
         id="rect4434"
         style="opacity:0.3;fill:#ffffff;fill-opacity:1;stroke:none;stroke-width:1;stroke-linecap:square;stroke-linejoin:round;stroke-miterlimit:4;stroke-dasharray:none;stroke-opacity:1" />
      <rect
         style="opacity:0.1;fill:url(#linearGradient4271);fill-opacity:1;stroke:none;stroke-width:1;stroke-linecap:square;stroke-linejoin:round;stroke-miterlimit:4;stroke-dasharray:none;stroke-opacity:1"
         id="rect4436"
         width="2"
         height="28.000471"
         x="33"
         y="1007.3622" />
      <rect
         y="1007.3622"
         x="53"
         height="28.000471"
         width="2"
         id="rect4460"
         style="opacity:0.1;fill:url(#linearGradient4269);fill-opacity:1;stroke:none;stroke-width:1;stroke-linecap:square;stroke-linejoin:round;stroke-miterlimit:4;stroke-dasharray:none;stroke-opacity:1" />
      <rect
         ry="1.5"
         rx="1.5"
         style="opacity:0.3;fill:none;fill-opacity:1;stroke:url(#linearGradient4411);stroke-width:0.99999923;stroke-linecap:square;stroke-linejoin:round;stroke-miterlimit:4;stroke-dasharray:none;stroke-opacity:1"
         id="rect4401"
         width="17"
         height="23"
         x="35.5"
         y="1009.8624" />
      <rect
         style="opacity:0.6;fill:#000000;fill-opacity:1;stroke:none;stroke-width:0.99999976;stroke-linecap:square;stroke-linejoin:round;stroke-miterlimit:4;stroke-dasharray:none;stroke-opacity:1"
         id="rect4643"
         width="15"
         height="21"
         x="36.5"
         y="1010.8622"
         ry="0.5"
         rx="0.5" />
      <rect
         y="1010.8624"
         x="36.5"
         height="21.000002"
         width="15.000001"
         id="rect4496"
         style="opacity:1;fill:none;fill-opacity:1;stroke:url(#linearGradient4882);stroke-width:0.99999923;stroke-linecap:square;stroke-linejoin:round;stroke-miterlimit:4;stroke-dasharray:none;stroke-opacity:1"
         rx="0.5"
         ry="0.5" />
      <path
         style="opacity:1;fill:url(#linearGradient4711);fill-opacity:1;stroke:none;stroke-width:1;stroke-linecap:square;stroke-linejoin:round;stroke-miterlimit:4;stroke-dasharray:none;stroke-opacity:1"
         d="m 37,23 0,1 1,0 0,-1 -1,0 z m 1,1 0,1 1,0 0,-1 -1,0 z m 1,0 1,0 0,-1 -1,0 0,1 z m 1,0 0,1 1,0 0,-1 -1,0 z m 1,0 1,0 0,-1 -1,0 0,1 z m 1,0 0,1 1,0 0,-1 -1,0 z m 1,0 1,0 0,-1 -1,0 0,1 z m 1,0 0,1 1,0 0,-1 -1,0 z m 1,0 1,0 0,-1 -1,0 0,1 z m 1,0 0,1 1,0 0,-1 -1,0 z m 1,0 1,0 0,-1 -1,0 0,1 z m 1,0 0,1 1,0 0,-1 -1,0 z m 1,0 1,0 0,-1 -1,0 0,1 z m 1,0 0,1 1,0 0,-1 -1,0 z m 0,1 -1,0 0,1 1,0 0,-1 z m 0,1 0,1 1,0 0,-1 -1,0 z m 0,1 -1,0 0,1 1,0 0,-1 z m 0,1 0,1 1,0 0,-1 -1,0 z m 0,1 -1,0 0,1 1,0 0,-1 z m 0,1 0,1 1,0 0,-1 -1,0 z m 0,1 -1,0 0,1 1,0 0,-1 z m 0,1 0,1 1,0 0,-1 -1,0 z m 0,1 -1,0 0,1 1,0 0,-1 z m 0,1 0,1 1,0 0,-1 -1,0 z m 0,1 -1,0 0,1 1,0 0,-1 z m 0,1 0,1 1,0 0,-1 -1,0 z m 0,1 -1,0 0,1 1,0 0,-1 z m 0,1 0,1 1,0 0,-1 -1,0 z m 0,1 -1,0 0,1 1,0 0,-1 z m 0,1 0,1 1,0 0,-1 -1,0 z m 0,1 -1,0 0,1 1,0 0,-1 z m 0,1 0,1 1,0 0,-1 -1,0 z m -1,0 -1,0 0,1 1,0 0,-1 z m -1,0 0,-1 -1,0 0,1 1,0 z m -1,0 -1,0 0,1 1,0 0,-1 z m -1,0 0,-1 -1,0 0,1 1,0 z m -1,0 -1,0 0,1 1,0 0,-1 z m -1,0 0,-1 -1,0 0,1 1,0 z m -1,0 -1,0 0,1 1,0 0,-1 z m -1,0 0,-1 -1,0 0,1 1,0 z m -1,0 -1,0 0,1 1,0 0,-1 z m -1,0 0,-1 -1,0 0,1 1,0 z m -1,0 -1,0 0,1 1,0 0,-1 z m -1,0 0,-1 -1,0 0,1 1,0 z m 0,-1 1,0 0,-1 -1,0 0,1 z m 0,-1 0,-1 -1,0 0,1 1,0 z m 0,-1 1,0 0,-1 -1,0 0,1 z m 0,-1 0,-1 -1,0 0,1 1,0 z m 0,-1 1,0 0,-1 -1,0 0,1 z m 0,-1 0,-1 -1,0 0,1 1,0 z m 0,-1 1,0 0,-1 -1,0 0,1 z m 0,-1 0,-1 -1,0 0,1 1,0 z m 0,-1 1,0 0,-1 -1,0 0,1 z m 0,-1 0,-1 -1,0 0,1 1,0 z m 0,-1 1,0 0,-1 -1,0 0,1 z m 0,-1 0,-1 -1,0 0,1 1,0 z m 0,-1 1,0 0,-1 -1,0 0,1 z m 0,-1 0,-1 -1,0 0,1 1,0 z m 0,-1 1,0 0,-1 -1,0 0,1 z m 0,-1 0,-1 -1,0 0,1 1,0 z m 1,0 1,0 0,-1 -1,0 0,1 z m 1,0 0,1 1,0 0,-1 -1,0 z m 1,0 1,0 0,-1 -1,0 0,1 z m 1,0 0,1 1,0 0,-1 -1,0 z m 1,0 1,0 0,-1 -1,0 0,1 z m 1,0 0,1 1,0 0,-1 -1,0 z m 1,0 1,0 0,-1 -1,0 0,1 z m 1,0 0,1 1,0 0,-1 -1,0 z m 1,0 1,0 0,-1 -1,0 0,1 z m 1,0 0,1 1,0 0,-1 -1,0 z m 0,1 -1,0 0,1 1,0 0,-1 z m 0,1 0,1 1,0 0,-1 -1,0 z m 0,1 -1,0 0,1 1,0 0,-1 z m 0,1 0,1 1,0 0,-1 -1,0 z m 0,1 -1,0 0,1 1,0 0,-1 z m 0,1 0,1 1,0 0,-1 -1,0 z m 0,1 -1,0 0,1 1,0 0,-1 z m 0,1 0,1 1,0 0,-1 -1,0 z m 0,1 -1,0 0,1 1,0 0,-1 z m 0,1 0,1 1,0 0,-1 -1,0 z m 0,1 -1,0 0,1 1,0 0,-1 z m 0,1 0,1 1,0 0,-1 -1,0 z m 0,1 -1,0 0,1 1,0 0,-1 z m 0,1 0,1 1,0 0,-1 -1,0 z m -1,0 -1,0 0,1 1,0 0,-1 z m -1,0 0,-1 -1,0 0,1 1,0 z m -1,0 -1,0 0,1 1,0 0,-1 z m -1,0 0,-1 -1,0 0,1 1,0 z m -1,0 -1,0 0,1 1,0 0,-1 z m -1,0 0,-1 -1,0 0,1 1,0 z m -1,0 -1,0 0,1 1,0 0,-1 z m -1,0 0,-1 -1,0 0,1 1,0 z m 0,-1 1,0 0,-1 -1,0 0,1 z m 0,-1 0,-1 -1,0 0,1 1,0 z m 0,-1 1,0 0,-1 -1,0 0,1 z m 0,-1 0,-1 -1,0 0,1 1,0 z m 0,-1 1,0 0,-1 -1,0 0,1 z m 0,-1 0,-1 -1,0 0,1 1,0 z m 0,-1 1,0 0,-1 -1,0 0,1 z m 0,-1 0,-1 -1,0 0,1 1,0 z m 0,-1 1,0 0,-1 -1,0 0,1 z m 0,-1 0,-1 -1,0 0,1 1,0 z m 0,-1 1,0 0,-1 -1,0 0,1 z m 0,-1 0,-1 -1,0 0,1 1,0 z m 1,0 1,0 0,-1 -1,0 0,1 z m 1,0 0,1 1,0 0,-1 -1,0 z m 1,0 1,0 0,-1 -1,0 0,1 z m 1,0 0,1 1,0 0,-1 -1,0 z m 1,0 1,0 0,-1 -1,0 0,1 z m 1,0 0,1 1,0 0,-1 -1,0 z m 0,1 -1,0 0,1 1,0 0,-1 z m 0,1 0,1 1,0 0,-1 -1,0 z m 0,1 -1,0 0,1 1,0 0,-1 z m 0,1 0,1 1,0 0,-1 -1,0 z m 0,1 -1,0 0,1 1,0 0,-1 z m 0,1 0,1 1,0 0,-1 -1,0 z m 0,1 -1,0 0,1 1,0 0,-1 z m 0,1 0,1 1,0 0,-1 -1,0 z m 0,1 -1,0 0,1 1,0 0,-1 z m 0,1 0,1 1,0 0,-1 -1,0 z m -1,0 -1,0 0,1 1,0 0,-1 z m -1,0 0,-1 -1,0 0,1 1,0 z m -1,0 -1,0 0,1 1,0 0,-1 z m -1,0 0,-1 -1,0 0,1 1,0 z m 0,-1 1,0 0,-1 -1,0 0,1 z m 0,-1 0,-1 -1,0 0,1 1,0 z m 0,-1 1,0 0,-1 -1,0 0,1 z m 0,-1 0,-1 -1,0 0,1 1,0 z m 0,-1 1,0 0,-1 -1,0 0,1 z m 0,-1 0,-1 -1,0 0,1 1,0 z m 0,-1 1,0 0,-1 -1,0 0,1 z m 0,-1 0,-1 -1,0 0,1 1,0 z m 1,0 1,0 0,-1 -1,0 0,1 z m 1,0 0,1 1,0 0,-1 -1,0 z m 0,1 -1,0 0,1 1,0 0,-1 z m 0,1 0,1 1,0 0,-1 -1,0 z m 0,1 -1,0 0,1 1,0 0,-1 z m 0,1 0,1 1,0 0,-1 -1,0 z m 0,1 -1,0 0,1 1,0 0,-1 z m 0,1 0,1 1,0 0,-1 -1,0 z"
         transform="translate(0,988.3622)"
         id="rect4429" />
    </g>
    <g
       id="g4388">
      <rect
         width="7.8947511"
         height="5"
         x="50.105"
         y="1044.8622"
         id="rect2801-5-5-7-9"
         style="opacity:0.4;fill:url(#radialGradient3337-2-2);fill-opacity:1;stroke:none" />
      <rect
         width="7.8947511"
         height="5"
         x="-13.894751"
         y="-1049.8622"
         transform="scale(-1,-1)"
         id="rect3696-3-0-3-7"
         style="opacity:0.4;fill:url(#radialGradient3339-1-4);fill-opacity:1;stroke:none" />
      <rect
         width="36.210999"
         height="5.0000005"
         x="13.895"
         y="1044.8622"
         id="rect3700-5-6-8-4"
         style="opacity:0.4;fill:url(#linearGradient13984);fill-opacity:1;stroke:none" />
    </g>
    <rect
       y="1013.3622"
       x="10.5"
       height="29.5"
       width="10"
       id="rect4171"
       style="opacity:1;fill:url(#linearGradient4199);fill-opacity:1;stroke:none;stroke-width:1;stroke-linecap:square;stroke-linejoin:round;stroke-miterlimit:4;stroke-dasharray:none;stroke-opacity:1" />
    <rect
       transform="scale(-1,1)"
       style="opacity:1;fill:url(#linearGradient4818);fill-opacity:1;stroke:none;stroke-width:1;stroke-linecap:square;stroke-linejoin:round;stroke-miterlimit:4;stroke-dasharray:none;stroke-opacity:1"
       id="rect4816"
       width="10"
       height="29.5"
       x="-53.5"
       y="1013.3622" />
    <path
       id="path4820"
       transform="translate(0,988.3622)"
       d="M 32 3.5 A 21.5 21.5 0 0 0 10.5 25 L 20.5 25 A 11.5 11.5 0 0 1 32 13.5 A 11.5 11.5 0 0 1 43.5 25 L 53.5 25 A 21.5 21.5 0 0 0 32 3.5 z "
       style="opacity:1;fill:url(#radialGradient4837);fill-opacity:1;stroke:none;stroke-width:1;stroke-linecap:square;stroke-linejoin:round;stroke-miterlimit:4;stroke-dasharray:none;stroke-opacity:1" />
    <path
       id="rect4839"
       transform="translate(0,988.3622)"
       d="M 32 3.5 A 21.5 21.5 0 0 0 10.5 25 L 10.5 54.5 L 20.5 54.5 L 20.5 25 A 11.5 11.5 0 0 1 32 13.5 A 11.5 11.5 0 0 1 43.5 25 L 43.5 54.5 L 53.5 54.5 L 53.5 25 A 21.5 21.5 0 0 0 32 3.5 z "
       style="opacity:0.7;fill:none;fill-opacity:1;stroke:#850234;stroke-width:1;stroke-linecap:square;stroke-linejoin:round;stroke-miterlimit:4;stroke-dasharray:none;stroke-opacity:1" />
    <g
       transform="translate(4,0)"
       id="g4379">
      <rect
         y="1042.8622"
         x="4.5"
         height="5"
         width="47"
         id="rect4177"
         style="opacity:1;fill:url(#linearGradient4237);fill-opacity:1;stroke:none;stroke-width:1;stroke-linecap:square;stroke-linejoin:round;stroke-miterlimit:4;stroke-dasharray:none;stroke-opacity:1" />
      <rect
         style="opacity:0.3;fill:none;fill-opacity:1;stroke:#000000;stroke-width:1;stroke-linecap:square;stroke-linejoin:round;stroke-miterlimit:4;stroke-dasharray:none;stroke-opacity:1"
         id="rect4239"
         width="47"
         height="5"
         x="4.5"
         y="1042.8622" />
      <rect
         y="-50"
         x="1040.3622"
         height="44"
         width="2"
         id="rect4462"
         style="opacity:0.1;fill:url(#linearGradient4273);fill-opacity:1;stroke:none;stroke-width:1;stroke-linecap:square;stroke-linejoin:round;stroke-miterlimit:4;stroke-dasharray:none;stroke-opacity:1"
         transform="matrix(0,1,-1,0,0,0)" />
      <rect
         y="1043.8622"
         x="5.5"
         height="3"
         width="45"
         id="rect4365"
         style="opacity:0.5;fill:none;fill-opacity:1;stroke:url(#linearGradient4367);stroke-width:1;stroke-linecap:square;stroke-linejoin:round;stroke-miterlimit:4;stroke-dasharray:none;stroke-opacity:1" />
    </g>
    <path
       id="rect4848"
       transform="translate(0,988.3622)"
       d="M 32 4.5 A 20.5 20.5 0 0 0 11.5 25 L 11.5 53.5 L 19.5 53.5 L 19.5 25 A 12.5 12.5 0 0 1 32 12.5 A 12.5 12.5 0 0 1 44.5 25 L 44.5 53.5 L 52.5 53.5 L 52.5 25 A 20.5 20.5 0 0 0 32 4.5 z "
       style="opacity:0.5;fill:none;fill-opacity:1;stroke:url(#linearGradient4862);stroke-width:1;stroke-linecap:square;stroke-linejoin:round;stroke-miterlimit:4;stroke-dasharray:none;stroke-opacity:1" />
    <g
       transform="translate(0,6.0000174)"
       id="g4806">
      <rect
         style="opacity:1;fill:url(#linearGradient6077);fill-opacity:1;stroke:none;stroke-width:1;stroke-linecap:square;stroke-linejoin:round;stroke-miterlimit:4;stroke-dasharray:none;stroke-opacity:1"
         id="rect6069"
         width="11"
         height="12"
         x="-54.5"
         y="1007.8622"
         transform="scale(-1,1)" />
      <rect
         y="1007.8622"
         x="43.5"
         height="12"
         width="11"
         id="rect6071"
         style="opacity:0.3;fill:none;fill-opacity:1;stroke:#000000;stroke-width:0.99999994;stroke-linecap:square;stroke-linejoin:round;stroke-miterlimit:4;stroke-dasharray:none;stroke-opacity:1" />
      <rect
         style="opacity:0.13;fill:url(#linearGradient4267);fill-opacity:1;stroke:none;stroke-width:1;stroke-linecap:square;stroke-linejoin:round;stroke-miterlimit:4;stroke-dasharray:none;stroke-opacity:1"
         id="rect6073"
         width="11"
         height="2"
         x="43"
         y="1020.3622" />
      <rect
         style="opacity:0.5;fill:none;fill-opacity:1;stroke:url(#linearGradient4748);stroke-width:0.99999994;stroke-linecap:square;stroke-linejoin:round;stroke-miterlimit:4;stroke-dasharray:none;stroke-opacity:1"
         id="rect4746"
         width="9"
         height="10"
         x="44.5"
         y="1008.8622" />
      <rect
         y="-54"
         x="1015.3622"
         height="10"
         width="1"
         id="rect6075"
         style="opacity:0.3;fill:#000000;fill-opacity:1;stroke:none;stroke-width:1;stroke-linecap:square;stroke-linejoin:round;stroke-miterlimit:4;stroke-dasharray:none;stroke-opacity:1"
         transform="matrix(0,1,-1,0,0,0)" />
      <rect
         transform="matrix(0,1,-1,0,0,0)"
         style="opacity:0.3;fill:#000000;fill-opacity:1;stroke:none;stroke-width:1;stroke-linecap:square;stroke-linejoin:round;stroke-miterlimit:4;stroke-dasharray:none;stroke-opacity:1"
         id="rect6134"
         width="1"
         height="10"
         x="1011.3622"
         y="-54" />
      <rect
         transform="matrix(0,1,-1,0,0,0)"
         style="opacity:0.3;fill:#ffffff;fill-opacity:1;stroke:none;stroke-width:1;stroke-linecap:square;stroke-linejoin:round;stroke-miterlimit:4;stroke-dasharray:none;stroke-opacity:1"
         id="rect4772"
         width="1"
         height="10"
         x="1016.3622"
         y="-54" />
      <rect
         y="-54"
         x="1012.3622"
         height="10"
         width="1"
         id="rect4774"
         style="opacity:0.4;fill:#ffffff;fill-opacity:1;stroke:none;stroke-width:1;stroke-linecap:square;stroke-linejoin:round;stroke-miterlimit:4;stroke-dasharray:none;stroke-opacity:1"
         transform="matrix(0,1,-1,0,0,0)" />
    </g>
    <g
       transform="translate(0,6.0000174)"
       id="g4796">
      <rect
         y="1007.8622"
         x="9.5000019"
         height="12"
         width="11"
         id="rect4776"
         style="opacity:1;fill:url(#linearGradient4792);fill-opacity:1;stroke:none;stroke-width:1;stroke-linecap:square;stroke-linejoin:round;stroke-miterlimit:4;stroke-dasharray:none;stroke-opacity:1" />
      <rect
         style="opacity:0.3;fill:none;fill-opacity:1;stroke:#000000;stroke-width:0.99999994;stroke-linecap:square;stroke-linejoin:round;stroke-miterlimit:4;stroke-dasharray:none;stroke-opacity:1"
         id="rect4778"
         width="11"
         height="12"
         x="9.5"
         y="1007.8622" />
      <rect
         y="1020.3622"
         x="10"
         height="2"
         width="11"
         id="rect4780"
         style="opacity:0.13;fill:url(#linearGradient4265);fill-opacity:1;stroke:none;stroke-width:1;stroke-linecap:square;stroke-linejoin:round;stroke-miterlimit:4;stroke-dasharray:none;stroke-opacity:1" />
      <rect
         y="1008.8622"
         x="10.5"
         height="10"
         width="9"
         id="rect4782"
         style="opacity:0.5;fill:none;fill-opacity:1;stroke:url(#linearGradient4794);stroke-width:0.99999994;stroke-linecap:square;stroke-linejoin:round;stroke-miterlimit:4;stroke-dasharray:none;stroke-opacity:1" />
      <rect
         transform="matrix(0,1,-1,0,0,0)"
         style="opacity:0.3;fill:#000000;fill-opacity:1;stroke:none;stroke-width:1;stroke-linecap:square;stroke-linejoin:round;stroke-miterlimit:4;stroke-dasharray:none;stroke-opacity:1"
         id="rect4784"
         width="1"
         height="10"
         x="1015.3622"
         y="-20.000002" />
      <rect
         y="-20.000002"
         x="1011.3622"
         height="10"
         width="1"
         id="rect4786"
         style="opacity:0.3;fill:#000000;fill-opacity:1;stroke:none;stroke-width:1;stroke-linecap:square;stroke-linejoin:round;stroke-miterlimit:4;stroke-dasharray:none;stroke-opacity:1"
         transform="matrix(0,1,-1,0,0,0)" />
      <rect
         y="-20.000002"
         x="1016.3622"
         height="10"
         width="1"
         id="rect4788"
         style="opacity:0.3;fill:#ffffff;fill-opacity:1;stroke:none;stroke-width:1;stroke-linecap:square;stroke-linejoin:round;stroke-miterlimit:4;stroke-dasharray:none;stroke-opacity:1"
         transform="matrix(0,1,-1,0,0,0)" />
      <rect
         transform="matrix(0,1,-1,0,0,0)"
         style="opacity:0.4;fill:#ffffff;fill-opacity:1;stroke:none;stroke-width:1;stroke-linecap:square;stroke-linejoin:round;stroke-miterlimit:4;stroke-dasharray:none;stroke-opacity:1"
         id="rect4790"
         width="1"
         height="10"
         x="1012.3622"
         y="-20.000002" />
    </g>
    <path
       id="circle4877"
       transform="translate(0,988.3622)"
       d="M 32.164062 2.5 A 22.5 22.5 0 0 0 23.388672 4.2128906 L 27.601562 14.384766 A 11.5 11.5 0 0 1 32 13.5 A 11.5 11.5 0 0 1 36.400391 14.378906 L 40.611328 4.2128906 A 22.5 22.5 0 0 0 32.164062 2.5 z "
       style="opacity:1;fill:url(#linearGradient4883);fill-opacity:1;stroke:none;stroke-width:1;stroke-linecap:square;stroke-linejoin:round;stroke-miterlimit:4;stroke-dasharray:none;stroke-opacity:1" />
    <path
       style="opacity:0.3;fill:none;fill-opacity:1;stroke:#000000;stroke-width:1;stroke-linecap:square;stroke-linejoin:round;stroke-miterlimit:4;stroke-dasharray:none;stroke-opacity:1"
       d="M 32.164062 2.5 A 22.5 22.5 0 0 0 23.388672 4.2128906 L 27.601562 14.384766 A 11.5 11.5 0 0 1 32 13.5 A 11.5 11.5 0 0 1 36.400391 14.378906 L 40.611328 4.2128906 A 22.5 22.5 0 0 0 32.164062 2.5 z "
       transform="translate(0,988.3622)"
       id="path4885" />
    <path
       id="circle4828"
       transform="translate(0,988.3622)"
       d="m 31.019531,3.5214844 c -2.151665,0.098603 -4.276297,0.519974 -6.302734,1.25 L 28.17,13.15 c 1.356301,-0.492289 2.387126,-0.646036 3.83,-0.65 1.442447,0.0054 2.473552,0.160602 3.829,0.654 l 3.454203,-8.3825156 c -2.646274,-0.953198 -5.453868,-1.3778873 -8.263672,-1.25 z"
       style="opacity:0.5;fill:none;fill-opacity:1;stroke:url(#linearGradient4888);stroke-width:1;stroke-linecap:square;stroke-linejoin:round;stroke-miterlimit:4;stroke-dasharray:none;stroke-opacity:1" />
  </g>
</svg>
